<svg width="40" height="40" viewBox="0 0 40 40" fill="none" xmlns="http://www.w3.org/2000/svg">
<g clip-path="url(#clip0_7214_15597)">
<path d="M40 16.4249C39.5479 -2.98821 12.6642 -6.14418 7.56967 12.3572L0 18.5422L3.32898 23.5356L0.0771719 29.3164L4.24069 30.2144L0.115366 39.8399L9.74115 35.7147L10.6391 39.8781L16.4198 36.6265L21.4132 39.9554L27.5981 32.3859C34.7187 30.5702 40 24.1029 40 16.4249ZM14.6358 14.7718L17.5468 15.7177L19.1053 20.5141L17.3062 22.9904L11.0863 23.0848C10.3095 21.6391 9.77762 20.0434 9.54571 18.3531L14.6358 14.7718ZM9.44156 15.5498C9.5923 13.0981 10.3709 10.8136 11.6193 8.85596L13.0415 13.0169L9.44156 15.5498ZM23.5304 12.5692L27.1975 15.2335L25.7968 19.5443H21.2641L19.8635 15.2335L23.5304 12.5692ZM17.0479 25.3474L18.3447 29.555C16.114 28.6709 14.1603 27.2339 12.6537 25.414L17.0479 25.3474ZM21.0432 30.3223L19.2096 24.3733L21.0086 21.8971H26.0521L27.8511 24.3733L26.0175 30.3223C24.3781 30.615 22.6835 30.6151 21.0432 30.3223ZM29.7547 22.9904L27.9557 20.5141L29.5141 15.7177L32.425 14.7718L37.515 18.3531C37.2831 20.0434 36.7513 21.6391 35.9744 23.0848L29.7547 22.9904ZM34.0194 13.0169L35.4416 8.85596C36.69 10.8136 37.4686 13.0981 37.6194 15.5498L34.0194 13.0169ZM33.7082 6.65264L31.6979 12.5342L28.7869 13.4801L24.7069 10.5157V7.45486L29.6844 3.72175C31.1953 4.45677 32.5563 5.45341 33.7082 6.65264ZM27.0543 2.75334L23.5304 5.39616L20.0067 2.75334C22.309 2.15957 24.7517 2.15949 27.0543 2.75334ZM17.3765 3.72175L22.354 7.45486V10.5157L18.2739 13.4801L15.3629 12.5342L13.3527 6.65264C14.5045 5.45349 15.8656 4.45677 17.3765 3.72175ZM20.942 36.8135L16.5241 33.8683L12.2663 36.2634L11.4389 32.4273L4.59502 35.3604L7.52818 28.5164L3.69202 27.689L6.08709 23.4312L3.14178 19.0133L7.07378 15.8006C6.7149 25.3831 14.5919 33.2397 24.1548 32.8815L20.942 36.8135ZM28.7161 29.5551L30.013 25.3475L34.4071 25.4142C32.9005 27.234 30.947 28.6709 28.7161 29.5551Z" fill="#5AB060"/>
</g>
<defs>
<clipPath id="clip0_7214_15597">
<rect width="40" height="40" fill="white"/>
</clipPath>
</defs>
</svg>
