<svg width="24" height="24" viewBox="0 0 24 24" fill="none" xmlns="http://www.w3.org/2000/svg">
<path d="M6.32899 17.8838C6.32899 18.4322 6.77676 18.8799 7.32769 18.8799H8.46939V21.7016C8.46939 22.4164 9.04376 23 9.74941 23C10.4574 23 11.0294 22.4188 11.0294 21.7016V18.8775H13.0221V21.6993C13.0221 22.4141 13.5965 22.9977 14.3022 22.9977C15.0102 22.9977 15.5822 22.4164 15.5822 21.6993V18.8775H16.7239C17.2748 18.8775 17.7226 18.4299 17.7226 17.8815V8.61939H6.32899V17.8838ZM14.7007 3.8196L15.7533 2.29623C15.8143 2.20718 15.8002 2.08765 15.7182 2.02906C15.6361 1.97281 15.5189 2.00093 15.4579 2.08999L14.3655 3.6743C13.6457 3.39072 12.844 3.23369 12.0023 3.23369C11.1607 3.23369 10.3589 3.39072 9.63923 3.6743L8.54675 2.09234C8.4858 2.00328 8.36858 1.97281 8.28653 2.0314C8.20448 2.08765 8.19041 2.20483 8.25137 2.29858L9.30398 3.82195C7.63011 4.60004 6.45793 6.07419 6.30789 7.79677H17.7015C17.5468 6.07185 16.3722 4.59769 14.7007 3.8196ZM9.59703 6.22184C9.4723 6.22184 9.35037 6.18487 9.24667 6.11559C9.14296 6.04632 9.06213 5.94786 9.0144 5.83266C8.96667 5.71746 8.95418 5.5907 8.97851 5.46841C9.00285 5.34611 9.06291 5.23378 9.1511 5.14561C9.2393 5.05744 9.35167 4.9974 9.474 4.97307C9.59633 4.94875 9.72313 4.96123 9.83836 5.00895C9.95359 5.05666 10.0521 5.13747 10.1214 5.24115C10.1907 5.34482 10.2277 5.46671 10.2277 5.5914C10.2272 5.75847 10.1606 5.91857 10.0425 6.03671C9.9243 6.15485 9.76415 6.22141 9.59703 6.22184ZM14.4827 6.22184C14.3579 6.22184 14.236 6.18487 14.1323 6.11559C14.0286 6.04632 13.9478 5.94786 13.9 5.83266C13.8523 5.71746 13.8398 5.5907 13.8642 5.46841C13.8885 5.34611 13.9486 5.23378 14.0367 5.14561C14.1249 5.05744 14.2373 4.9974 14.3596 4.97307C14.482 4.94875 14.6088 4.96123 14.724 5.00895C14.8392 5.05666 14.9377 5.13747 15.007 5.24115C15.0763 5.34482 15.1133 5.46671 15.1133 5.5914C15.1129 5.75847 15.0463 5.91857 14.9281 6.03671C14.8099 6.15485 14.6498 6.22141 14.4827 6.22184ZM19.72 8.58189C19.012 8.58189 18.44 9.16312 18.44 9.88027V14.9519C18.44 15.6667 19.0143 16.2503 19.72 16.2503C20.428 16.2503 21 15.6691 21 14.9519V9.87793C21.0023 9.16077 20.4303 8.58189 19.72 8.58189ZM4.28002 8.58189C3.57202 8.58189 3 9.16312 3 9.88027V14.9519C3 15.6667 3.57437 16.2503 4.28002 16.2503C4.98802 16.2503 5.56004 15.6691 5.56004 14.9519V9.87793C5.56004 9.16077 4.98567 8.58189 4.28002 8.58189Z" fill="white"/>
</svg>
