<svg width="39" height="40" viewBox="0 0 39 40" fill="none" xmlns="http://www.w3.org/2000/svg">
<g filter="url(#filter0_d_2391_463)">
<path d="M28.637 20.6287C28.8694 20.3907 29 20.068 29 19.7316C29 19.3952 28.8694 19.0726 28.637 18.8345L20.3622 10.3713C20.1295 10.1335 19.814 10 19.4851 10C19.1561 10 18.8407 10.1335 18.6079 10.3713L10.3331 18.8345C10.1139 19.0752 9.99452 19.3935 10.0002 19.7224C10.0059 20.0512 10.1361 20.365 10.3635 20.5976C10.591 20.8302 10.8978 20.9635 11.2193 20.9693C11.5409 20.9751 11.8521 20.853 12.0874 20.6287L19.4851 13.0647L26.8827 20.6287C27.1155 20.8665 27.4309 21 27.7599 21C28.0888 21 28.4043 20.8665 28.637 20.6287Z" fill="white"/>
</g>
<g filter="url(#filter1_d_2391_463)">
<path d="M28.637 29.6287C28.8694 29.3907 29 29.068 29 28.7316C29 28.3952 28.8694 28.0726 28.637 27.8345L20.3622 19.3713C20.1295 19.1335 19.814 19 19.4851 19C19.1561 19 18.8407 19.1335 18.6079 19.3713L10.3331 27.8345C10.1139 28.0752 9.99452 28.3935 10.0002 28.7224C10.0059 29.0512 10.1361 29.365 10.3635 29.5976C10.591 29.8302 10.8978 29.9635 11.2193 29.9693C11.5409 29.9751 11.8521 29.853 12.0874 29.6287L19.4851 22.0647L26.8827 29.6287C27.1155 29.8665 27.4309 30 27.7599 30C28.0888 30 28.4043 29.8665 28.637 29.6287Z" fill="white"/>
</g>
<defs>
<filter id="filter0_d_2391_463" x="0" y="0" width="39" height="31" filterUnits="userSpaceOnUse" color-interpolation-filters="sRGB">
<feFlood flood-opacity="0" result="BackgroundImageFix"/>
<feColorMatrix in="SourceAlpha" type="matrix" values="0 0 0 0 0 0 0 0 0 0 0 0 0 0 0 0 0 0 127 0" result="hardAlpha"/>
<feOffset/>
<feGaussianBlur stdDeviation="5"/>
<feComposite in2="hardAlpha" operator="out"/>
<feColorMatrix type="matrix" values="0 0 0 0 1 0 0 0 0 0 0 0 0 0 0.933333 0 0 0 1 0"/>
<feBlend mode="normal" in2="BackgroundImageFix" result="effect1_dropShadow_2391_463"/>
<feBlend mode="normal" in="SourceGraphic" in2="effect1_dropShadow_2391_463" result="shape"/>
</filter>
<filter id="filter1_d_2391_463" x="0" y="9" width="39" height="31" filterUnits="userSpaceOnUse" color-interpolation-filters="sRGB">
<feFlood flood-opacity="0" result="BackgroundImageFix"/>
<feColorMatrix in="SourceAlpha" type="matrix" values="0 0 0 0 0 0 0 0 0 0 0 0 0 0 0 0 0 0 127 0" result="hardAlpha"/>
<feOffset/>
<feGaussianBlur stdDeviation="5"/>
<feComposite in2="hardAlpha" operator="out"/>
<feColorMatrix type="matrix" values="0 0 0 0 1 0 0 0 0 0 0 0 0 0 0.933333 0 0 0 1 0"/>
<feBlend mode="normal" in2="BackgroundImageFix" result="effect1_dropShadow_2391_463"/>
<feBlend mode="normal" in="SourceGraphic" in2="effect1_dropShadow_2391_463" result="shape"/>
</filter>
</defs>
</svg>
