<svg width="120" height="40" viewBox="0 0 120 40" fill="none" xmlns="http://www.w3.org/2000/svg">
<g clip-path="url(#clip0_6233_452)">
<path fill-rule="evenodd" clip-rule="evenodd" d="M116.8 40H3.2C1.4328 40 0 38.5672 0 36.8V3.2C0 1.4328 1.4328 0 3.2 0H116.8C118.567 0 120 1.4328 120 3.2V36.8C120 38.5672 118.567 40 116.8 40Z" fill="#FF333A"/>
<path d="M14.3626 23.1618L13.8106 20.6874H10.8722L10.3418 23.1618H7.42578L10.8722 8.42578H13.921L17.4562 23.1618H14.3626ZM13.369 18.4114C13.0594 16.9978 12.7506 15.6058 12.5298 14.1698C12.441 13.529 12.353 12.8666 12.2866 12.2258C12.1538 14.3026 11.7346 16.357 11.3146 18.4122H13.369V18.4114Z" fill="white"/>
<path d="M24.5331 11.7599C23.9363 11.2519 23.2515 10.8103 22.4347 10.8103C21.5731 10.8103 20.9763 11.3847 20.9763 12.2463C20.9763 14.7871 25.3947 14.7431 25.3947 18.8519C25.3947 21.3927 23.8699 23.4031 21.1971 23.4031C20.2915 23.4031 19.4075 23.1599 18.6563 22.6519V19.8679C19.3187 20.3095 20.0043 20.6631 20.8211 20.6631C21.8155 20.6631 22.5443 20.0447 22.5443 19.0279C22.5443 18.7631 22.5003 18.5199 22.3899 18.2767C22.1251 17.7247 21.3075 17.2383 20.8211 16.9071C19.1643 15.7583 18.1035 14.6975 18.1035 12.5551C18.1035 10.2351 19.4515 8.20312 21.9475 8.20312C22.9419 8.20312 23.6707 8.42392 24.5323 8.91032L24.5331 11.7599Z" fill="white"/>
<path d="M32.2293 23.1618L29.5117 15.6722V23.1618H26.5957V8.42578H29.5117V15.0098L31.9637 8.42578H34.9461L32.2285 15.2306L35.2773 23.1618H32.2293Z" fill="white"/>
<path d="M45.101 14.9639C45.1234 15.3391 45.1234 15.7151 45.1234 16.0903C45.1234 17.1287 45.0794 18.1895 44.8586 19.2055C44.3722 21.4807 42.8922 23.4031 40.3962 23.4031C36.4194 23.4031 35.1602 19.1167 35.1602 15.8471C35.1602 12.4671 36.265 8.20312 40.3962 8.20312C42.6498 8.20312 44.1074 9.61673 44.7266 11.6935L41.8986 12.7983C41.7658 11.9367 41.5234 10.7655 40.4186 10.7655C38.4306 10.7655 38.2754 14.4111 38.2754 15.8031C38.2754 17.2615 38.3418 20.7519 40.4402 20.7519C42.0306 20.7519 42.2074 18.7639 42.2298 17.5703H40.3738V14.9631H45.101V14.9639Z" fill="white"/>
<path d="M52.2747 23.1618L51.7227 20.6874H48.7843L48.2539 23.1618H45.3379L48.7843 8.42578H51.8331L55.3683 23.1618H52.2747ZM51.2803 18.4114C50.9707 16.9978 50.6619 15.6058 50.4411 14.1698C50.3523 13.529 50.2643 12.8666 50.1979 12.2258C50.0651 14.3026 49.6459 16.357 49.2259 18.4122H51.2803V18.4114Z" fill="white"/>
<path d="M66.5541 23.1618L65.8253 12.557C65.7589 13.7058 65.5821 14.8322 65.3837 15.9594L64.0797 23.1618H61.8485L60.4789 16.4898C60.3245 15.761 60.1693 15.0314 60.1037 14.2802L59.9269 12.557L59.4629 23.1618H56.3477L57.6293 8.42578H61.4733L62.9093 17.1306L64.0797 8.42578H68.0125L69.5365 23.1618H66.5541Z" fill="white"/>
<path d="M73.8582 8.42578C74.6318 8.42578 75.935 8.46978 76.951 9.46418C77.7462 10.2378 78.1662 11.4522 78.1662 12.6458C78.1662 13.3746 78.0118 14.1042 77.4814 14.745C77.2382 15.0322 76.863 15.3858 76.3102 15.6066C77.2598 15.9602 77.7238 16.6226 77.9006 16.9098C78.3206 17.617 78.4086 18.4346 78.4086 18.9866C78.4086 20.0914 78.1214 21.0858 77.3038 21.9026C76.1774 23.029 74.6966 23.1618 73.835 23.1618H70.7422V8.42578H73.8582ZM73.659 14.4794C74.123 14.457 74.6534 14.2586 74.9406 13.9714C75.3606 13.5514 75.4046 12.933 75.4046 12.6018C75.4046 12.2482 75.3606 11.6962 74.9406 11.2762C74.6974 11.033 74.2998 10.8346 73.659 10.8346V14.4794ZM73.659 20.6434C74.123 20.6434 74.6534 20.489 74.9846 20.1794C75.2942 19.8922 75.5366 19.3842 75.5366 18.7434C75.5366 18.0362 75.2934 17.5058 74.9622 17.197C74.6086 16.8874 74.0782 16.733 73.659 16.733V20.6434Z" fill="white"/>
<path d="M79.8184 23.1618V8.42578H82.7344V20.4002H85.7832V23.1618H79.8184Z" fill="white"/>
<path d="M86.9844 23.1618V8.42578H92.8388V11.165H89.9004V14.3466H92.4852V17.1306H89.9004V20.4442H92.8828V23.1618H86.9844Z" fill="white"/>
<path d="M99.7899 23.1618L97.2051 16.3794V23.1618H94.2891V8.42578H97.4483C98.5307 8.42578 99.7235 8.51458 100.651 9.13298C101.823 9.90658 102.397 11.3426 102.397 12.7122C102.397 14.3914 101.735 15.5842 100.299 16.4682L102.861 23.1626H99.7899V23.1618ZM97.2051 14.7666C97.3595 14.789 97.5363 14.789 97.6915 14.789C98.9507 14.789 99.5691 13.9274 99.5691 12.7346C99.5691 11.5418 99.0387 10.7242 97.7579 10.7242H97.2059L97.2051 14.7666Z" fill="white"/>
<path d="M109.939 11.7599C109.343 11.2519 108.658 10.8103 107.841 10.8103C106.979 10.8103 106.383 11.3847 106.383 12.2463C106.383 14.7871 110.801 14.7431 110.801 18.8519C110.801 21.3927 109.276 23.4031 106.603 23.4031C105.698 23.4031 104.814 23.1599 104.063 22.6519V19.8679C104.725 20.3095 105.411 20.6631 106.227 20.6631C107.222 20.6631 107.951 20.0447 107.951 19.0279C107.951 18.7631 107.907 18.5199 107.796 18.2767C107.531 17.7247 106.714 17.2383 106.227 16.9071C104.571 15.7583 103.51 14.6975 103.51 12.5551C103.51 10.2351 104.858 8.20312 107.354 8.20312C108.348 8.20312 109.077 8.42392 109.939 8.91032L109.939 11.7599Z" fill="white"/>
<path d="M113.057 12.3212C114.117 12.3212 114.975 11.4623 114.975 10.4028C114.975 9.34327 114.117 8.48438 113.057 8.48438C111.998 8.48438 111.139 9.34327 111.139 10.4028C111.139 11.4623 111.998 12.3212 113.057 12.3212Z" fill="white"/>
<path d="M7.25 29.287C7.25 27.3102 8.718 25.9766 10.6076 25.9766C11.8932 25.9766 12.6996 26.6382 13.17 27.4062L12.2196 27.9054C11.9124 27.3678 11.2884 26.9742 10.6076 26.9742C9.3412 26.9742 8.4012 27.9334 8.4012 29.287C8.4012 30.6206 9.3412 31.599 10.6076 31.599C11.2892 31.599 11.9124 31.1966 12.2196 30.6686L13.1788 31.1486C12.69 31.9158 11.8932 32.5974 10.6076 32.5974C8.718 32.5966 7.25 31.2534 7.25 29.287Z" fill="white"/>
<path d="M14.1328 32.482V26.082H18.5176V27.07H15.2552V28.7212H18.4504V29.7092H15.2552V31.494H18.5176V32.482H14.1328Z" fill="white"/>
<path d="M23.3857 32.482L21.9753 30.0932H20.8529V32.482H19.7305V26.082H22.5417C23.8081 26.082 24.6425 26.898 24.6425 28.0868C24.6425 29.2196 23.8937 29.8428 23.1169 29.9676L24.6905 32.4812H23.3857V32.482ZM23.4913 28.078C23.4913 27.4636 23.0305 27.0708 22.3977 27.0708H20.8529V29.1044H22.3977C23.0305 29.1044 23.4913 28.702 23.4913 28.078Z" fill="white"/>
<path d="M27.254 32.4812V27.07H25.3164V26.082H30.3156V27.07H28.3772V32.4812H27.254Z" fill="white"/>
<path d="M31.5176 32.482V26.082H32.64V32.482H31.5176Z" fill="white"/>
<path d="M34.0625 32.482V26.082H38.4473V27.07H35.1849V28.7212H38.3801V29.7092H35.1849V32.482H34.0625Z" fill="white"/>
<path d="M39.7168 32.482V26.082H40.8392V32.482H39.7168Z" fill="white"/>
<path d="M41.9824 29.287C41.9824 27.3102 43.4504 25.9766 45.3408 25.9766C46.6264 25.9766 47.432 26.6382 47.9024 27.4062L46.952 27.9046C46.6448 27.367 46.0208 26.9734 45.34 26.9734C44.0736 26.9734 43.1328 27.9326 43.1328 29.2862C43.1328 30.6198 44.0728 31.5982 45.34 31.5982C46.0208 31.5982 46.6448 31.1958 46.952 30.6678L47.9112 31.1478C47.4224 31.915 46.6256 32.5966 45.34 32.5966C43.4496 32.5966 41.9824 31.2534 41.9824 29.287Z" fill="white"/>
<path d="M53.4989 32.482L53.0293 31.2444H50.0933L49.6237 32.482H48.3477L50.8621 26.082H52.2629L54.7765 32.482H53.4989ZM51.5605 27.2052L50.4093 30.2564H52.7117L51.5605 27.2052Z" fill="white"/>
<path d="M56.4298 32.4812V27.07H54.4922V26.082H59.4914V27.07H57.553V32.4812H56.4298Z" fill="white"/>
<path d="M60.5 32.482V26.082H64.8848V27.07H61.6232V28.7212H64.8176V29.7092H61.6232V31.494H64.8848V32.482H60.5Z" fill="white"/>
<path d="M68.3535 29.287C68.3535 27.3774 69.7055 25.9766 71.6247 25.9766C73.5343 25.9766 74.8967 27.3774 74.8967 29.287C74.8967 31.1966 73.5343 32.5974 71.6247 32.5974C69.7055 32.5966 68.3535 31.1958 68.3535 29.287ZM73.7455 29.287C73.7455 27.963 72.9103 26.9742 71.6247 26.9742C70.3295 26.9742 69.5047 27.9622 69.5047 29.287C69.5047 30.6014 70.3295 31.599 71.6247 31.599C72.9103 31.599 73.7455 30.6014 73.7455 29.287Z" fill="white"/>
<path d="M76.0332 32.482V26.082H80.4172V27.07H77.1556V28.7212H80.35V29.7092H77.1556V32.482H76.0332Z" fill="white"/>
<path d="M85.5556 32.4812V27.07H83.6172V26.082H88.6164V27.07H86.678V32.4812H85.5556Z" fill="white"/>
<path d="M93.4736 32.482L92.0632 30.0932H90.9408V32.482H89.8184V26.082H92.6296C93.896 26.082 94.7312 26.898 94.7312 28.0868C94.7312 29.2196 93.9824 29.8428 93.2056 29.9676L94.7792 32.4812H93.4736V32.482ZM93.5792 28.078C93.5792 27.4636 93.1184 27.0708 92.4856 27.0708H90.9408V29.1044H92.4856C93.1184 29.1044 93.5792 28.702 93.5792 28.078Z" fill="white"/>
<path d="M95.7227 29.9484V26.082H96.8643V29.9196C96.8643 30.9364 97.4307 31.5988 98.4955 31.5988C99.5603 31.5988 100.127 30.9364 100.127 29.9196V26.082H101.268V29.9484C101.268 31.5316 100.357 32.5964 98.4955 32.5964C96.6435 32.5964 95.7227 31.5316 95.7227 29.9484Z" fill="white"/>
<path d="M102.088 31.5806L102.721 30.7078C103.153 31.1782 103.853 31.5998 104.745 31.5998C105.666 31.5998 106.021 31.1494 106.021 30.7166C106.021 29.3734 102.299 30.2086 102.299 27.8574C102.299 26.7918 103.22 25.9766 104.631 25.9766C105.619 25.9766 106.435 26.303 107.02 26.8782L106.386 27.7126C105.877 27.2046 105.197 26.9742 104.525 26.9742C103.873 26.9742 103.45 27.3006 103.45 27.771C103.45 28.9702 107.173 28.2318 107.173 30.611C107.173 31.6766 106.415 32.5974 104.697 32.5974C103.517 32.5974 102.664 32.175 102.088 31.5806Z" fill="white"/>
<path d="M109.69 32.4812V27.07H107.752V26.082H112.751V27.07H110.813V32.4812H109.69Z" fill="white"/>
</g>
<defs>
<clipPath id="clip0_6233_452">
<rect width="120" height="40" fill="white"/>
</clipPath>
</defs>
</svg>
