<svg width="29" height="30" viewBox="0 0 29 30" fill="none" xmlns="http://www.w3.org/2000/svg">
<path d="M27.4342 30.0001H1.03338C0.462651 30.0001 0 29.5372 0 28.9662V1.51953H28.4675V28.9662C28.4675 29.5372 28.0049 30.0001 27.4342 30.0001ZM2.77607 27.2227H25.6915V4.29687H2.77607V27.2227Z" fill="#0D5057"/>
<path d="M27.4342 28.4805H1.03338C0.462651 28.4805 0 28.0177 0 27.4467V1.03385C0 0.462862 0.462651 0 1.03338 0H27.4342C28.0049 0 28.4675 0.462862 28.4675 1.03385V27.4467C28.4675 28.0177 28.0049 28.4805 27.4342 28.4805ZM2.77607 25.7032H25.6915V2.77734H2.77607V25.7032Z" fill="#41B15B"/>
<path d="M9.50541 14.1614C10.5549 15.2881 11.443 16.5981 11.6109 16.754C11.7698 16.5986 11.9286 16.4439 12.0869 16.2902C14.7736 13.6996 17.5189 11.1274 20.4438 8.80396C20.6319 8.65169 21.2601 8.18297 21.4496 8.03675L23.1302 7.28198V8.84955C23.1366 9.09551 23.0512 9.35501 22.8401 9.5905C22.6059 9.85942 22.115 10.4097 21.9026 10.6739C20.9415 11.8161 19.9725 13.083 19.0783 14.2821C17.5893 16.2968 16.149 18.3577 14.7515 20.4377C14.4214 20.929 14.0736 21.4511 13.7498 21.9475C13.0576 23.1621 11.4322 23.4738 10.3396 22.6936C10.1432 22.5533 9.98687 22.3639 9.87804 22.1484C9.4993 21.3991 8.39214 19.2034 7.98357 18.3323C7.63248 17.601 7.27061 16.8695 6.84932 16.18C6.68495 15.9113 6.60486 15.6103 6.60486 15.3108V13.6946L9.50541 14.1614Z" fill="#0D5057"/>
<path d="M7.06279 12.5418C6.54484 13.0909 6.45554 13.9197 6.84921 14.5639C7.27053 15.2532 7.63244 15.9848 7.98349 16.7161C8.39206 17.5873 9.49918 19.7829 9.87796 20.5321C9.98692 20.7477 10.1432 20.9372 10.3397 21.0775C11.4322 21.8575 13.0574 21.5459 13.7498 20.3312C14.0736 19.8349 14.4213 19.313 14.7514 18.8215C16.1489 16.7415 17.5894 14.6807 19.0782 12.6661C19.9725 11.4667 20.9415 10.1998 21.9026 9.05758C22.1151 8.7936 22.6058 8.2433 22.84 7.97442C23.6939 7.02123 22.4925 5.67491 21.4495 6.42067C21.2601 6.56688 20.632 7.03547 20.4438 7.18767C17.5188 9.51113 14.7735 12.0834 12.0869 14.6739C11.9286 14.8278 11.7698 14.9826 11.6108 15.1378C11.4429 14.9818 10.5548 13.6721 9.50547 12.5453C8.84678 11.838 7.72595 11.8387 7.06279 12.5418Z" fill="#41B15B"/>
</svg>
