<svg width="306" height="89" viewBox="0 0 306 89" fill="none" xmlns="http://www.w3.org/2000/svg">
<g clip-path="url(#clip0_2391_93)">
<path d="M-42.9951 29.7763C-42.4154 26.994 -39.9632 25 -37.1212 25H284.851C288.023 25 290.393 27.9149 289.746 31.0198L281.995 68.2237C281.415 71.006 278.963 73 276.121 73H-45.851C-49.0225 73 -51.3927 70.0851 -50.7459 66.9802L-42.9951 29.7763Z" fill="url(#paint0_linear_2391_93)"/>
<path d="M-42.9951 29.7763C-42.4154 26.994 -39.9632 25 -37.1212 25H284.851C288.023 25 290.393 27.9149 289.746 31.0198L281.995 68.2237C281.415 71.006 278.963 73 276.121 73H-45.851C-49.0225 73 -51.3927 70.0851 -50.7459 66.9802L-42.9951 29.7763Z" fill="url(#paint1_radial_2391_93)" fill-opacity="0.7"/>
<g opacity="0.2">
<path d="M-32 31.5H271" stroke="url(#paint2_linear_2391_93)"/>
<path d="M-32 36.5H271" stroke="url(#paint3_linear_2391_93)"/>
<path d="M-32 41.5H271" stroke="url(#paint4_linear_2391_93)"/>
<path d="M-32 46.5H271" stroke="url(#paint5_linear_2391_93)"/>
<path d="M-32 51.5H271" stroke="url(#paint6_linear_2391_93)"/>
<path d="M-32 56.5H271" stroke="url(#paint7_linear_2391_93)"/>
<path d="M-32 61.5H271" stroke="url(#paint8_linear_2391_93)"/>
<path d="M-32 66.5H271" stroke="url(#paint9_linear_2391_93)"/>
</g>
<g filter="url(#filter0_dddd_2391_93)">
<path d="M-21 25H-37.1212C-39.9632 25 -42.4154 26.994 -42.9951 29.7763L-50.7459 66.9802C-51.3927 70.0851 -49.0386 73 -45.8671 73C47.7612 73 165.597 73 242 73M-3 25H284.851C288.023 25 290.393 27.9149 289.746 31.0198L281.995 68.2237C281.415 71.006 278.956 73 276.114 73C255.698 73 283.219 73 260 73" stroke="#00BF50" stroke-width="3" stroke-linecap="round" stroke-linejoin="round"/>
</g>
<path d="M-21 25H-37.1212C-39.9632 25 -42.4154 26.994 -42.9951 29.7763L-50.7459 66.9802C-51.3927 70.0851 -49.0386 73 -45.8671 73C47.7612 73 165.597 73 242 73M-3 25L284.851 25C288.023 25 290.393 27.9149 289.746 31.0198L281.995 68.2237C281.415 71.006 278.956 73 276.114 73C255.698 73 283.219 73 260 73" stroke="white" stroke-linecap="round" stroke-linejoin="round"/>
<path d="M275.535 39C274.909 39 274.437 38.4308 274.552 37.8154L275.677 31.8154C275.766 31.3426 276.179 31 276.66 31L282.625 31C283.251 31 283.723 31.5692 283.608 32.1846L282.483 38.1846C282.394 38.6574 281.981 39 281.5 39L275.535 39ZM264.568 39C263.967 39 263.501 38.4728 263.576 37.876L263.826 35.876C263.888 35.3756 264.314 35 264.818 35L268.697 35C269.298 35 269.764 35.5272 269.689 36.124L269.439 38.124C269.377 38.6244 268.951 39 268.447 39L264.568 39ZM270.031 49C269.406 49 268.934 48.4329 269.048 47.8184L269.784 43.8184C269.871 43.3441 270.286 43 270.768 43L274.629 43C275.253 43 275.725 43.5671 275.612 44.1816L274.876 48.1816C274.788 48.6558 274.374 48.9999 273.892 49L270.031 49ZM266.001 46C265.386 46 264.917 45.4507 265.012 44.8437L265.171 43.8437C265.247 43.3579 265.666 43.0001 266.158 43L266.66 43C267.274 43.0001 267.743 43.5494 267.647 44.1562L267.49 45.1562C267.413 45.6422 266.994 46 266.502 46L266.001 46ZM278.001 52C277.386 52 276.917 51.4507 277.012 50.8437L277.171 49.8437C277.247 49.3579 277.666 49.0001 278.158 49L278.66 49C279.274 49.0001 279.743 49.5494 279.647 50.1562L279.49 51.1562C279.413 51.6422 278.994 52 278.502 52L278.001 52ZM264.001 55C263.386 55 262.917 54.4507 263.012 53.8437L263.171 52.8437C263.247 52.3579 263.666 52.0001 264.158 52L264.66 52C265.274 52.0001 265.743 52.5494 265.647 53.1562L265.49 54.1562C265.413 54.6422 264.994 55 264.502 55L264.001 55ZM268.544 63C267.915 63 267.442 62.426 267.562 61.8086L268.146 58.8086C268.238 58.339 268.649 58 269.128 58L270.617 58C271.246 58.0003 271.719 58.5742 271.598 59.1914L271.013 62.1914C270.922 62.661 270.51 63 270.032 63L268.544 63Z" fill="url(#paint10_linear_2391_93)" fill-opacity="0.5"/>
</g>
<g clip-path="url(#clip1_2391_93)">
<path d="M37.1134 30.1186C37.5502 27.1776 40.075 25 43.0483 25H269.457C272.511 25 274.852 27.7137 274.403 30.7345L268.886 67.8814C268.45 70.8224 265.925 73 262.951 73H36.5424C33.4885 73 31.148 70.2863 31.5966 67.2655L37.1134 30.1186Z" fill="url(#paint11_linear_2391_93)"/>
<path d="M37.1134 30.1186C37.5502 27.1776 40.075 25 43.0483 25H269.457C272.511 25 274.852 27.7137 274.403 30.7345L268.886 67.8814C268.45 70.8224 265.925 73 262.951 73H36.5424C33.4885 73 31.148 70.2863 31.5966 67.2655L37.1134 30.1186Z" fill="url(#paint12_radial_2391_93)" fill-opacity="0.7"/>
<g opacity="0.2">
<path d="M-19.2939 31.5H298.309" stroke="url(#paint13_linear_2391_93)"/>
<path d="M-19.2939 36.5H298.309" stroke="url(#paint14_linear_2391_93)"/>
<path d="M-19.2939 41.5H298.309" stroke="url(#paint15_linear_2391_93)"/>
<path d="M-19.2939 46.5H298.309" stroke="url(#paint16_linear_2391_93)"/>
<path d="M-19.2939 51.5H298.309" stroke="url(#paint17_linear_2391_93)"/>
<path d="M-19.2939 56.5H298.309" stroke="url(#paint18_linear_2391_93)"/>
<path d="M-19.2939 61.5H298.309" stroke="url(#paint19_linear_2391_93)"/>
<path d="M-19.2939 66.5H298.309" stroke="url(#paint20_linear_2391_93)"/>
</g>
<g filter="url(#filter1_dddd_2391_93)">
<path d="M294.588 25L11.4117 25M11.4117 73C122.527 73 202.843 73 294.588 73" stroke="#00BF50" stroke-width="3" stroke-linecap="round" stroke-linejoin="round"/>
</g>
<path d="M290.039 25L15.9608 25M15.9608 73C123.506 73 201.242 73 290.039 73" stroke="white" stroke-linecap="round" stroke-linejoin="round"/>
</g>
<g clip-path="url(#clip2_2391_93)">
<path d="M24.0049 29.7763C24.5846 26.994 27.0368 25 29.8788 25H351.851C355.023 25 357.393 27.9149 356.746 31.0198L348.995 68.2237C348.415 71.006 345.963 73 343.121 73H21.149C17.9775 73 15.6073 70.0851 16.2541 66.9802L24.0049 29.7763Z" fill="url(#paint21_linear_2391_93)"/>
<path d="M24.0049 29.7763C24.5846 26.994 27.0368 25 29.8788 25H351.851C355.023 25 357.393 27.9149 356.746 31.0198L348.995 68.2237C348.415 71.006 345.963 73 343.121 73H21.149C17.9775 73 15.6073 70.0851 16.2541 66.9802L24.0049 29.7763Z" fill="url(#paint22_radial_2391_93)" fill-opacity="0.7"/>
<g opacity="0.2">
<path d="M35 31.5H338" stroke="url(#paint23_linear_2391_93)"/>
<path d="M35 36.5H338" stroke="url(#paint24_linear_2391_93)"/>
<path d="M35 41.5H338" stroke="url(#paint25_linear_2391_93)"/>
<path d="M35 46.5H338" stroke="url(#paint26_linear_2391_93)"/>
<path d="M35 51.5H338" stroke="url(#paint27_linear_2391_93)"/>
<path d="M35 56.5H338" stroke="url(#paint28_linear_2391_93)"/>
<path d="M35 61.5H338" stroke="url(#paint29_linear_2391_93)"/>
<path d="M35 66.5H338" stroke="url(#paint30_linear_2391_93)"/>
</g>
<g filter="url(#filter2_dddd_2391_93)">
<path d="M46 25H29.8788C27.0368 25 24.5846 26.994 24.0049 29.7763L16.2541 66.9802C15.6073 70.0851 17.9614 73 21.1329 73C114.761 73 232.597 73 309 73M64 25H351.851C355.023 25 357.393 27.9149 356.746 31.0198L348.995 68.2237C348.415 71.006 345.956 73 343.114 73C322.698 73 350.219 73 327 73" stroke="#00BF50" stroke-width="3" stroke-linecap="round" stroke-linejoin="round"/>
</g>
<path d="M46 25H29.8788C27.0368 25 24.5846 26.994 24.0049 29.7763L16.2541 66.9802C15.6073 70.0851 17.9614 73 21.1329 73C114.761 73 232.597 73 309 73M64 25L351.851 25C355.023 25 357.393 27.9149 356.746 31.0198L348.995 68.2237C348.415 71.006 345.956 73 343.114 73C322.698 73 350.219 73 327 73" stroke="white" stroke-linecap="round" stroke-linejoin="round"/>
<path d="M30.2948 59C30.9209 59 31.3926 59.5692 31.2772 60.1846L30.1522 66.1846C30.0634 66.6574 29.6509 67 29.1698 67H23.2049C22.5788 67 22.1061 66.4308 22.2215 65.8154L23.3465 59.8154C23.4353 59.3426 23.8488 59 24.3299 59H30.2948ZM41.2616 59C41.8631 59 42.3284 59.5272 42.2537 60.124L42.0037 62.124C41.9412 62.6244 41.5159 63 41.0116 63H37.1327C36.5312 63 36.0659 62.4728 36.1405 61.876L36.3905 59.876C36.453 59.3756 36.8783 59 37.3827 59H41.2616ZM35.7987 49C36.4235 49 36.8953 49.5671 36.7821 50.1816L36.0457 54.1816C35.9582 54.6559 35.5436 55 35.0614 55H31.201C30.5762 55 30.1044 54.4329 30.2176 53.8184L30.9539 49.8184C31.0415 49.3442 31.4552 49.0001 31.9373 49H35.7987ZM39.8289 52C40.4434 52 40.9131 52.5493 40.8172 53.1562L40.659 54.1562C40.5822 54.6421 40.1636 54.9999 39.6717 55H39.1698C38.5554 54.9999 38.0866 54.4506 38.1825 53.8438L38.3397 52.8438C38.4165 52.3578 38.836 52 39.328 52H39.8289ZM27.8289 46C28.4434 46 28.9131 46.5493 28.8172 47.1562L28.659 48.1562C28.5822 48.6421 28.1636 48.9999 27.6717 49H27.1698C26.5554 48.9999 26.0866 48.4506 26.1825 47.8438L26.3397 46.8438C26.4165 46.3578 26.836 46 27.328 46H27.8289ZM41.8289 43C42.4434 43 42.9131 43.5493 42.8172 44.1562L42.659 45.1562C42.5822 45.6421 42.1636 45.9999 41.6717 46H41.1698C40.5554 45.9999 40.0866 45.4506 40.1825 44.8438L40.3397 43.8438C40.4165 43.3578 40.836 43 41.328 43H41.8289ZM37.286 35C37.915 35 38.3876 35.574 38.2674 36.1914L37.6834 39.1914C37.5919 39.661 37.1805 40 36.702 40H35.2127C34.584 39.9997 34.1111 39.4258 34.2313 38.8086L34.8162 35.8086C34.9079 35.339 35.3192 35 35.7977 35H37.286Z" fill="url(#paint31_linear_2391_93)" fill-opacity="0.5"/>
</g>
<g filter="url(#filter3_f_2391_93)">
<ellipse cx="223" cy="25" rx="54" ry="5" fill="#2BFF9C"/>
</g>
<g filter="url(#filter4_f_2391_93)">
<ellipse cx="223" cy="25" rx="45" ry="2" fill="url(#paint32_linear_2391_93)"/>
</g>
<defs>
<filter id="filter0_dddd_2391_93" x="-66.3538" y="9.5" width="371.707" height="79" filterUnits="userSpaceOnUse" color-interpolation-filters="sRGB">
<feFlood flood-opacity="0" result="BackgroundImageFix"/>
<feColorMatrix in="SourceAlpha" type="matrix" values="0 0 0 0 0 0 0 0 0 0 0 0 0 0 0 0 0 0 127 0" result="hardAlpha"/>
<feOffset/>
<feGaussianBlur stdDeviation="7"/>
<feComposite in2="hardAlpha" operator="out"/>
<feColorMatrix type="matrix" values="0 0 0 0 0 0 0 0 0 1 0 0 0 0 0.383333 0 0 0 1 0"/>
<feBlend mode="normal" in2="BackgroundImageFix" result="effect1_dropShadow_2391_93"/>
<feColorMatrix in="SourceAlpha" type="matrix" values="0 0 0 0 0 0 0 0 0 0 0 0 0 0 0 0 0 0 127 0" result="hardAlpha"/>
<feOffset/>
<feGaussianBlur stdDeviation="7"/>
<feComposite in2="hardAlpha" operator="out"/>
<feColorMatrix type="matrix" values="0 0 0 0 0 0 0 0 0 1 0 0 0 0 0.384314 0 0 0 1 0"/>
<feBlend mode="normal" in2="effect1_dropShadow_2391_93" result="effect2_dropShadow_2391_93"/>
<feColorMatrix in="SourceAlpha" type="matrix" values="0 0 0 0 0 0 0 0 0 0 0 0 0 0 0 0 0 0 127 0" result="hardAlpha"/>
<feOffset/>
<feGaussianBlur stdDeviation="2.5"/>
<feComposite in2="hardAlpha" operator="out"/>
<feColorMatrix type="matrix" values="0 0 0 0 0 0 0 0 0 1 0 0 0 0 0.384314 0 0 0 1 0"/>
<feBlend mode="normal" in2="effect2_dropShadow_2391_93" result="effect3_dropShadow_2391_93"/>
<feColorMatrix in="SourceAlpha" type="matrix" values="0 0 0 0 0 0 0 0 0 0 0 0 0 0 0 0 0 0 127 0" result="hardAlpha"/>
<feOffset/>
<feGaussianBlur stdDeviation="2.5"/>
<feComposite in2="hardAlpha" operator="out"/>
<feColorMatrix type="matrix" values="0 0 0 0 0 0 0 0 0 1 0 0 0 0 0.384314 0 0 0 0.4 0"/>
<feBlend mode="normal" in2="effect3_dropShadow_2391_93" result="effect4_dropShadow_2391_93"/>
<feBlend mode="normal" in="SourceGraphic" in2="effect4_dropShadow_2391_93" result="shape"/>
</filter>
<filter id="filter1_dddd_2391_93" x="-4.08826" y="9.5" width="314.177" height="79" filterUnits="userSpaceOnUse" color-interpolation-filters="sRGB">
<feFlood flood-opacity="0" result="BackgroundImageFix"/>
<feColorMatrix in="SourceAlpha" type="matrix" values="0 0 0 0 0 0 0 0 0 0 0 0 0 0 0 0 0 0 127 0" result="hardAlpha"/>
<feOffset/>
<feGaussianBlur stdDeviation="7"/>
<feComposite in2="hardAlpha" operator="out"/>
<feColorMatrix type="matrix" values="0 0 0 0 0 0 0 0 0 1 0 0 0 0 0.383333 0 0 0 1 0"/>
<feBlend mode="normal" in2="BackgroundImageFix" result="effect1_dropShadow_2391_93"/>
<feColorMatrix in="SourceAlpha" type="matrix" values="0 0 0 0 0 0 0 0 0 0 0 0 0 0 0 0 0 0 127 0" result="hardAlpha"/>
<feOffset/>
<feGaussianBlur stdDeviation="7"/>
<feComposite in2="hardAlpha" operator="out"/>
<feColorMatrix type="matrix" values="0 0 0 0 0 0 0 0 0 1 0 0 0 0 0.384314 0 0 0 1 0"/>
<feBlend mode="normal" in2="effect1_dropShadow_2391_93" result="effect2_dropShadow_2391_93"/>
<feColorMatrix in="SourceAlpha" type="matrix" values="0 0 0 0 0 0 0 0 0 0 0 0 0 0 0 0 0 0 127 0" result="hardAlpha"/>
<feOffset/>
<feGaussianBlur stdDeviation="2.5"/>
<feComposite in2="hardAlpha" operator="out"/>
<feColorMatrix type="matrix" values="0 0 0 0 0 0 0 0 0 1 0 0 0 0 0.384314 0 0 0 1 0"/>
<feBlend mode="normal" in2="effect2_dropShadow_2391_93" result="effect3_dropShadow_2391_93"/>
<feColorMatrix in="SourceAlpha" type="matrix" values="0 0 0 0 0 0 0 0 0 0 0 0 0 0 0 0 0 0 127 0" result="hardAlpha"/>
<feOffset/>
<feGaussianBlur stdDeviation="2.5"/>
<feComposite in2="hardAlpha" operator="out"/>
<feColorMatrix type="matrix" values="0 0 0 0 0 0 0 0 0 1 0 0 0 0 0.384314 0 0 0 0.4 0"/>
<feBlend mode="normal" in2="effect3_dropShadow_2391_93" result="effect4_dropShadow_2391_93"/>
<feBlend mode="normal" in="SourceGraphic" in2="effect4_dropShadow_2391_93" result="shape"/>
</filter>
<filter id="filter2_dddd_2391_93" x="0.64624" y="9.5" width="371.707" height="79" filterUnits="userSpaceOnUse" color-interpolation-filters="sRGB">
<feFlood flood-opacity="0" result="BackgroundImageFix"/>
<feColorMatrix in="SourceAlpha" type="matrix" values="0 0 0 0 0 0 0 0 0 0 0 0 0 0 0 0 0 0 127 0" result="hardAlpha"/>
<feOffset/>
<feGaussianBlur stdDeviation="7"/>
<feComposite in2="hardAlpha" operator="out"/>
<feColorMatrix type="matrix" values="0 0 0 0 0 0 0 0 0 1 0 0 0 0 0.383333 0 0 0 1 0"/>
<feBlend mode="normal" in2="BackgroundImageFix" result="effect1_dropShadow_2391_93"/>
<feColorMatrix in="SourceAlpha" type="matrix" values="0 0 0 0 0 0 0 0 0 0 0 0 0 0 0 0 0 0 127 0" result="hardAlpha"/>
<feOffset/>
<feGaussianBlur stdDeviation="7"/>
<feComposite in2="hardAlpha" operator="out"/>
<feColorMatrix type="matrix" values="0 0 0 0 0 0 0 0 0 1 0 0 0 0 0.384314 0 0 0 1 0"/>
<feBlend mode="normal" in2="effect1_dropShadow_2391_93" result="effect2_dropShadow_2391_93"/>
<feColorMatrix in="SourceAlpha" type="matrix" values="0 0 0 0 0 0 0 0 0 0 0 0 0 0 0 0 0 0 127 0" result="hardAlpha"/>
<feOffset/>
<feGaussianBlur stdDeviation="2.5"/>
<feComposite in2="hardAlpha" operator="out"/>
<feColorMatrix type="matrix" values="0 0 0 0 0 0 0 0 0 1 0 0 0 0 0.384314 0 0 0 1 0"/>
<feBlend mode="normal" in2="effect2_dropShadow_2391_93" result="effect3_dropShadow_2391_93"/>
<feColorMatrix in="SourceAlpha" type="matrix" values="0 0 0 0 0 0 0 0 0 0 0 0 0 0 0 0 0 0 127 0" result="hardAlpha"/>
<feOffset/>
<feGaussianBlur stdDeviation="2.5"/>
<feComposite in2="hardAlpha" operator="out"/>
<feColorMatrix type="matrix" values="0 0 0 0 0 0 0 0 0 1 0 0 0 0 0.384314 0 0 0 0.4 0"/>
<feBlend mode="normal" in2="effect3_dropShadow_2391_93" result="effect4_dropShadow_2391_93"/>
<feBlend mode="normal" in="SourceGraphic" in2="effect4_dropShadow_2391_93" result="shape"/>
</filter>
<filter id="filter3_f_2391_93" x="149" y="0" width="148" height="50" filterUnits="userSpaceOnUse" color-interpolation-filters="sRGB">
<feFlood flood-opacity="0" result="BackgroundImageFix"/>
<feBlend mode="normal" in="SourceGraphic" in2="BackgroundImageFix" result="shape"/>
<feGaussianBlur stdDeviation="10" result="effect1_foregroundBlur_2391_93"/>
</filter>
<filter id="filter4_f_2391_93" x="174" y="19" width="98" height="12" filterUnits="userSpaceOnUse" color-interpolation-filters="sRGB">
<feFlood flood-opacity="0" result="BackgroundImageFix"/>
<feBlend mode="normal" in="SourceGraphic" in2="BackgroundImageFix" result="shape"/>
<feGaussianBlur stdDeviation="2" result="effect1_foregroundBlur_2391_93"/>
</filter>
<linearGradient id="paint0_linear_2391_93" x1="-52" y1="49" x2="291" y2="49" gradientUnits="userSpaceOnUse">
<stop stop-color="#00240F"/>
<stop offset="0.25" stop-color="#003608"/>
<stop offset="0.75" stop-color="#003608"/>
<stop offset="1" stop-color="#00240F"/>
</linearGradient>
<radialGradient id="paint1_radial_2391_93" cx="0" cy="0" r="1" gradientUnits="userSpaceOnUse" gradientTransform="translate(120 73) scale(171 49.4307)">
<stop stop-color="#00FF91"/>
<stop offset="1" stop-color="#005B26" stop-opacity="0"/>
</radialGradient>
<linearGradient id="paint2_linear_2391_93" x1="-32" y1="32" x2="271" y2="32" gradientUnits="userSpaceOnUse">
<stop stop-color="white" stop-opacity="0"/>
<stop offset="0.100962" stop-color="white"/>
<stop offset="0.9" stop-color="white"/>
<stop offset="1" stop-color="white" stop-opacity="0"/>
</linearGradient>
<linearGradient id="paint3_linear_2391_93" x1="-32" y1="37" x2="271" y2="37" gradientUnits="userSpaceOnUse">
<stop stop-color="white" stop-opacity="0"/>
<stop offset="0.100962" stop-color="white"/>
<stop offset="0.9" stop-color="white"/>
<stop offset="1" stop-color="white" stop-opacity="0"/>
</linearGradient>
<linearGradient id="paint4_linear_2391_93" x1="-32" y1="42" x2="271" y2="42" gradientUnits="userSpaceOnUse">
<stop stop-color="white" stop-opacity="0"/>
<stop offset="0.100962" stop-color="white"/>
<stop offset="0.9" stop-color="white"/>
<stop offset="1" stop-color="white" stop-opacity="0"/>
</linearGradient>
<linearGradient id="paint5_linear_2391_93" x1="-32" y1="47" x2="271" y2="47" gradientUnits="userSpaceOnUse">
<stop stop-color="white" stop-opacity="0"/>
<stop offset="0.100962" stop-color="white"/>
<stop offset="0.9" stop-color="white"/>
<stop offset="1" stop-color="white" stop-opacity="0"/>
</linearGradient>
<linearGradient id="paint6_linear_2391_93" x1="-32" y1="52" x2="271" y2="52" gradientUnits="userSpaceOnUse">
<stop stop-color="white" stop-opacity="0"/>
<stop offset="0.100962" stop-color="white"/>
<stop offset="0.9" stop-color="white"/>
<stop offset="1" stop-color="white" stop-opacity="0"/>
</linearGradient>
<linearGradient id="paint7_linear_2391_93" x1="-32" y1="57" x2="271" y2="57" gradientUnits="userSpaceOnUse">
<stop stop-color="white" stop-opacity="0"/>
<stop offset="0.100962" stop-color="white"/>
<stop offset="0.9" stop-color="white"/>
<stop offset="1" stop-color="white" stop-opacity="0"/>
</linearGradient>
<linearGradient id="paint8_linear_2391_93" x1="-32" y1="62" x2="271" y2="62" gradientUnits="userSpaceOnUse">
<stop stop-color="white" stop-opacity="0"/>
<stop offset="0.100962" stop-color="white"/>
<stop offset="0.9" stop-color="white"/>
<stop offset="1" stop-color="white" stop-opacity="0"/>
</linearGradient>
<linearGradient id="paint9_linear_2391_93" x1="-32" y1="67" x2="271" y2="67" gradientUnits="userSpaceOnUse">
<stop stop-color="white" stop-opacity="0"/>
<stop offset="0.100962" stop-color="white"/>
<stop offset="0.9" stop-color="white"/>
<stop offset="1" stop-color="white" stop-opacity="0"/>
</linearGradient>
<linearGradient id="paint10_linear_2391_93" x1="273.313" y1="91" x2="273.313" y2="31" gradientUnits="userSpaceOnUse">
<stop stop-color="#00451C" stop-opacity="0.25"/>
<stop offset="1" stop-color="#007932"/>
</linearGradient>
<linearGradient id="paint11_linear_2391_93" x1="30.745" y1="49" x2="275.255" y2="49" gradientUnits="userSpaceOnUse">
<stop stop-color="#00240F"/>
<stop offset="0.25" stop-color="#003608"/>
<stop offset="0.75" stop-color="#003608"/>
<stop offset="1" stop-color="#00240F"/>
</linearGradient>
<radialGradient id="paint12_radial_2391_93" cx="0" cy="0" r="1" gradientUnits="userSpaceOnUse" gradientTransform="translate(153.356 73) scale(121.898 49.4307)">
<stop stop-color="#00FF91"/>
<stop offset="1" stop-color="#005B26" stop-opacity="0"/>
</radialGradient>
<linearGradient id="paint13_linear_2391_93" x1="-19.2939" y1="32" x2="298.309" y2="32" gradientUnits="userSpaceOnUse">
<stop stop-color="white" stop-opacity="0"/>
<stop offset="0.100962" stop-color="white"/>
<stop offset="0.9" stop-color="white"/>
<stop offset="1" stop-color="white" stop-opacity="0"/>
</linearGradient>
<linearGradient id="paint14_linear_2391_93" x1="-19.2939" y1="37" x2="298.309" y2="37" gradientUnits="userSpaceOnUse">
<stop stop-color="white" stop-opacity="0"/>
<stop offset="0.100962" stop-color="white"/>
<stop offset="0.9" stop-color="white"/>
<stop offset="1" stop-color="white" stop-opacity="0"/>
</linearGradient>
<linearGradient id="paint15_linear_2391_93" x1="-19.2939" y1="42" x2="298.309" y2="42" gradientUnits="userSpaceOnUse">
<stop stop-color="white" stop-opacity="0"/>
<stop offset="0.100962" stop-color="white"/>
<stop offset="0.9" stop-color="white"/>
<stop offset="1" stop-color="white" stop-opacity="0"/>
</linearGradient>
<linearGradient id="paint16_linear_2391_93" x1="-19.2939" y1="47" x2="298.309" y2="47" gradientUnits="userSpaceOnUse">
<stop stop-color="white" stop-opacity="0"/>
<stop offset="0.100962" stop-color="white"/>
<stop offset="0.9" stop-color="white"/>
<stop offset="1" stop-color="white" stop-opacity="0"/>
</linearGradient>
<linearGradient id="paint17_linear_2391_93" x1="-19.2939" y1="52" x2="298.309" y2="52" gradientUnits="userSpaceOnUse">
<stop stop-color="white" stop-opacity="0"/>
<stop offset="0.100962" stop-color="white"/>
<stop offset="0.9" stop-color="white"/>
<stop offset="1" stop-color="white" stop-opacity="0"/>
</linearGradient>
<linearGradient id="paint18_linear_2391_93" x1="-19.2939" y1="57" x2="298.309" y2="57" gradientUnits="userSpaceOnUse">
<stop stop-color="white" stop-opacity="0"/>
<stop offset="0.100962" stop-color="white"/>
<stop offset="0.9" stop-color="white"/>
<stop offset="1" stop-color="white" stop-opacity="0"/>
</linearGradient>
<linearGradient id="paint19_linear_2391_93" x1="-19.2939" y1="62" x2="298.309" y2="62" gradientUnits="userSpaceOnUse">
<stop stop-color="white" stop-opacity="0"/>
<stop offset="0.100962" stop-color="white"/>
<stop offset="0.9" stop-color="white"/>
<stop offset="1" stop-color="white" stop-opacity="0"/>
</linearGradient>
<linearGradient id="paint20_linear_2391_93" x1="-19.2939" y1="67" x2="298.309" y2="67" gradientUnits="userSpaceOnUse">
<stop stop-color="white" stop-opacity="0"/>
<stop offset="0.100962" stop-color="white"/>
<stop offset="0.9" stop-color="white"/>
<stop offset="1" stop-color="white" stop-opacity="0"/>
</linearGradient>
<linearGradient id="paint21_linear_2391_93" x1="15" y1="49" x2="358" y2="49" gradientUnits="userSpaceOnUse">
<stop stop-color="#00240F"/>
<stop offset="0.25" stop-color="#003608"/>
<stop offset="0.75" stop-color="#003608"/>
<stop offset="1" stop-color="#00240F"/>
</linearGradient>
<radialGradient id="paint22_radial_2391_93" cx="0" cy="0" r="1" gradientUnits="userSpaceOnUse" gradientTransform="translate(187 73) scale(171 49.4307)">
<stop stop-color="#00FF91"/>
<stop offset="1" stop-color="#005B26" stop-opacity="0"/>
</radialGradient>
<linearGradient id="paint23_linear_2391_93" x1="35" y1="32" x2="338" y2="32" gradientUnits="userSpaceOnUse">
<stop stop-color="white" stop-opacity="0"/>
<stop offset="0.100962" stop-color="white"/>
<stop offset="0.9" stop-color="white"/>
<stop offset="1" stop-color="white" stop-opacity="0"/>
</linearGradient>
<linearGradient id="paint24_linear_2391_93" x1="35" y1="37" x2="338" y2="37" gradientUnits="userSpaceOnUse">
<stop stop-color="white" stop-opacity="0"/>
<stop offset="0.100962" stop-color="white"/>
<stop offset="0.9" stop-color="white"/>
<stop offset="1" stop-color="white" stop-opacity="0"/>
</linearGradient>
<linearGradient id="paint25_linear_2391_93" x1="35" y1="42" x2="338" y2="42" gradientUnits="userSpaceOnUse">
<stop stop-color="white" stop-opacity="0"/>
<stop offset="0.100962" stop-color="white"/>
<stop offset="0.9" stop-color="white"/>
<stop offset="1" stop-color="white" stop-opacity="0"/>
</linearGradient>
<linearGradient id="paint26_linear_2391_93" x1="35" y1="47" x2="338" y2="47" gradientUnits="userSpaceOnUse">
<stop stop-color="white" stop-opacity="0"/>
<stop offset="0.100962" stop-color="white"/>
<stop offset="0.9" stop-color="white"/>
<stop offset="1" stop-color="white" stop-opacity="0"/>
</linearGradient>
<linearGradient id="paint27_linear_2391_93" x1="35" y1="52" x2="338" y2="52" gradientUnits="userSpaceOnUse">
<stop stop-color="white" stop-opacity="0"/>
<stop offset="0.100962" stop-color="white"/>
<stop offset="0.9" stop-color="white"/>
<stop offset="1" stop-color="white" stop-opacity="0"/>
</linearGradient>
<linearGradient id="paint28_linear_2391_93" x1="35" y1="57" x2="338" y2="57" gradientUnits="userSpaceOnUse">
<stop stop-color="white" stop-opacity="0"/>
<stop offset="0.100962" stop-color="white"/>
<stop offset="0.9" stop-color="white"/>
<stop offset="1" stop-color="white" stop-opacity="0"/>
</linearGradient>
<linearGradient id="paint29_linear_2391_93" x1="35" y1="62" x2="338" y2="62" gradientUnits="userSpaceOnUse">
<stop stop-color="white" stop-opacity="0"/>
<stop offset="0.100962" stop-color="white"/>
<stop offset="0.9" stop-color="white"/>
<stop offset="1" stop-color="white" stop-opacity="0"/>
</linearGradient>
<linearGradient id="paint30_linear_2391_93" x1="35" y1="67" x2="338" y2="67" gradientUnits="userSpaceOnUse">
<stop stop-color="white" stop-opacity="0"/>
<stop offset="0.100962" stop-color="white"/>
<stop offset="0.9" stop-color="white"/>
<stop offset="1" stop-color="white" stop-opacity="0"/>
</linearGradient>
<linearGradient id="paint31_linear_2391_93" x1="32.5169" y1="13" x2="32.5169" y2="67" gradientUnits="userSpaceOnUse">
<stop stop-color="#00451C" stop-opacity="0.25"/>
<stop offset="1" stop-color="#007932"/>
</linearGradient>
<linearGradient id="paint32_linear_2391_93" x1="178" y1="25" x2="268" y2="25" gradientUnits="userSpaceOnUse">
<stop stop-color="white" stop-opacity="0"/>
<stop offset="0.25" stop-color="white"/>
<stop offset="0.75" stop-color="white"/>
<stop offset="1" stop-color="white" stop-opacity="0"/>
</linearGradient>
<clipPath id="clip0_2391_93">
<rect width="66" height="80" fill="white" transform="translate(240 9)"/>
</clipPath>
<clipPath id="clip1_2391_93">
<rect width="174" height="80" fill="white" transform="matrix(-1 0 0 1 240 9)"/>
</clipPath>
<clipPath id="clip2_2391_93">
<rect width="66" height="80" fill="white" transform="translate(0 9)"/>
</clipPath>
</defs>
</svg>
