<svg width="20" height="20" viewBox="0 0 20 20" fill="none" xmlns="http://www.w3.org/2000/svg">
<path fill-rule="evenodd" clip-rule="evenodd" d="M18.3337 10.0003C18.3337 11.1503 17.4003 12.0837 16.2503 12.0837H12.0837V16.2503C12.0837 17.4003 11.1503 18.3337 10.0003 18.3337C8.85032 18.3337 7.91698 17.4003 7.91698 16.2503V12.0837H3.75033C2.60033 12.0837 1.66699 11.1503 1.66699 10.0003C1.66699 8.85033 2.60033 7.917 3.75033 7.917H7.91698V3.75033C7.91698 2.60033 8.85032 1.66699 10.0003 1.66699C11.1503 1.66699 12.0837 2.60033 12.0837 3.75033V7.917H16.2503C17.4003 7.917 18.3337 8.85033 18.3337 10.0003Z" fill="white"/>
</svg>
