<svg width="112" height="70" viewBox="0 0 112 70" fill="none" xmlns="http://www.w3.org/2000/svg">
<path d="M0 18.925C0 14.4446 0 12.2044 0.871948 10.4931C1.63893 8.98778 2.86278 7.76393 4.36808 6.99695C6.07937 6.125 8.31958 6.125 12.8 6.125H99.2C103.68 6.125 105.921 6.125 107.632 6.99695C109.137 7.76393 110.361 8.98778 111.128 10.4931C112 12.2044 112 14.4446 112 18.925V51.075C112 55.5554 112 57.7956 111.128 59.5069C110.361 61.0122 109.137 62.2361 107.632 63.0031C105.921 63.875 103.68 63.875 99.2 63.875H12.8C8.31958 63.875 6.07937 63.875 4.36808 63.0031C2.86278 62.2361 1.63893 61.0122 0.871948 59.5069C0 57.7956 0 55.5554 0 51.075V18.925Z" fill="#FCF4FF"/>
<path d="M47.6585 33.7759C47.4772 35.136 46.3891 35.136 45.3917 35.136H44.8476L45.301 32.5064C45.301 32.3251 45.4824 32.2344 45.6637 32.2344H45.9357C46.6611 32.2344 47.2958 32.2344 47.6585 32.5971C47.6585 32.9598 47.6585 33.3225 47.6585 33.7759ZM47.2052 30.1489H43.3062C43.0342 30.1489 42.8528 30.3303 42.7622 30.6023L41.2207 40.5764C41.2207 40.7577 41.3114 40.9391 41.5834 40.9391H43.3969C43.6689 40.9391 43.8502 40.7577 43.9409 40.4857L44.3943 37.7655C44.3943 37.4935 44.6663 37.3121 44.9383 37.3121H46.2078C48.7466 37.3121 50.1974 36.0427 50.6508 33.5945C50.8321 32.5064 50.6508 31.6904 50.1974 31.0557C49.472 30.5116 48.4746 30.1489 47.2052 30.1489Z" fill="#263577"/>
<path d="M56.1809 37.4025C55.9996 38.4906 55.1835 39.216 54.0954 39.216C53.5514 39.216 53.098 39.0347 52.826 38.672C52.554 38.3093 52.4633 37.8559 52.554 37.4025C52.7353 36.3144 53.5514 35.5891 54.6395 35.5891C55.1835 35.5891 55.6369 35.7704 55.9089 36.1331C56.0902 36.4051 56.2716 36.8585 56.1809 37.4025ZM58.7198 33.7756H56.9063C56.725 33.7756 56.6343 33.8663 56.5436 34.0476L56.4529 34.5916L56.3623 34.4103C55.9996 33.8663 55.0928 33.5942 54.1861 33.5942C52.1006 33.5942 50.3778 35.1357 50.0151 37.3119C49.8338 38.3999 50.1058 39.3973 50.7405 40.1227C51.2845 40.7575 52.1006 41.0295 53.098 41.0295C54.7301 41.0295 55.6369 39.9414 55.6369 39.9414L55.5462 40.4854C55.5462 40.6668 55.6369 40.8481 55.9089 40.8481H57.541C57.813 40.8481 57.9944 40.6668 58.0851 40.3948L59.0825 34.0476C59.0825 33.9569 58.9918 33.7756 58.7198 33.7756Z" fill="#263577"/>
<path d="M68.6039 33.7759H66.6998C66.5184 33.7759 66.3371 33.8666 66.2464 34.0479L63.7076 37.8562L62.6195 34.2292C62.5288 33.9572 62.3474 33.8666 62.0754 33.8666H60.2619C60.0806 33.8666 59.8993 34.0479 59.9899 34.3199L62.0754 40.3044L60.1713 43.0246C59.9899 43.2059 60.1713 43.5686 60.4433 43.5686H62.3475C62.5288 43.5686 62.7102 43.478 62.8008 43.2966L68.9666 34.3199C69.0573 34.0479 68.876 33.7759 68.6039 33.7759Z" fill="#263577"/>
<path d="M75.2227 33.7759C75.0414 35.136 73.9533 35.136 72.9559 35.136H72.4119L72.8652 32.5064C72.8652 32.3251 73.0466 32.2344 73.2279 32.2344H73.4999C74.2253 32.2344 74.86 32.2344 75.2227 32.5971C75.3134 32.9598 75.3134 33.3225 75.2227 33.7759ZM74.7694 30.1489H70.8704C70.5984 30.1489 70.417 30.3303 70.3264 30.6023L68.7849 40.5764C68.7849 40.7577 68.8756 40.9391 69.1476 40.9391H71.1424C71.3238 40.9391 71.5051 40.8484 71.5051 40.5764L71.9585 37.7655C71.9585 37.4935 72.2305 37.3121 72.5025 37.3121H73.772C76.3108 37.3121 77.7616 36.0427 78.215 33.5945C78.3963 32.5064 78.215 31.6904 77.7616 31.0557C77.1269 30.5116 76.1295 30.1489 74.7694 30.1489Z" fill="#2199D6"/>
<path d="M83.8372 37.4025C83.6558 38.4906 82.8398 39.216 81.7517 39.216C81.2076 39.216 80.7543 39.0347 80.4823 38.672C80.2102 38.3093 80.1195 37.8559 80.2102 37.4025C80.3916 36.3144 81.2076 35.5891 82.2957 35.5891C82.8398 35.5891 83.2931 35.7704 83.5651 36.1331C83.7465 36.4051 83.9278 36.8585 83.8372 37.4025ZM86.376 33.7756H84.5626C84.3812 33.7756 84.2905 33.8663 84.1998 34.0476L84.1092 34.5916L84.0185 34.4103C83.6558 33.8663 82.7491 33.5942 81.8424 33.5942C79.7569 33.5942 78.0341 35.1357 77.6714 37.3119C77.49 38.3999 77.762 39.3973 78.3967 40.1227C78.9408 40.7575 79.7569 41.0295 80.7543 41.0295C82.3864 41.0295 83.2931 39.9414 83.2931 39.9414L83.2025 40.4854C83.2025 40.6668 83.2931 40.8481 83.5651 40.8481H85.1973C85.4693 40.8481 85.6506 40.6668 85.7413 40.3948L86.7387 34.0476C86.7387 33.9569 86.5574 33.7756 86.376 33.7756Z" fill="#2199D6"/>
<path d="M88.5521 30.4209L86.9199 40.5764C86.9199 40.7577 87.0106 40.9391 87.2826 40.9391H88.9147C89.1868 40.9391 89.3681 40.7577 89.4588 40.4857L91.0002 30.5116C91.0002 30.3303 90.9096 30.1489 90.6375 30.1489H88.8241C88.7334 30.1489 88.6427 30.3303 88.5521 30.4209Z" fill="#2199D6"/>
<path d="M25.0803 42.843L25.3524 40.9388H24.7176H21.5441L23.7202 27.0658C23.7202 27.0658 23.7202 26.9751 23.8109 26.9751H23.9016H29.2513C30.9741 26.9751 32.2436 27.3378 32.8783 28.0632C33.1503 28.4259 33.3316 28.7886 33.4223 29.1513C33.513 29.6046 33.513 30.058 33.4223 30.6927V31.0554L33.6943 31.2368C33.9664 31.3274 34.1477 31.5088 34.3291 31.6901C34.6011 31.9621 34.7824 32.3248 34.7824 32.7782C34.8731 33.2316 34.8731 33.7756 34.6917 34.4103C34.5104 35.1357 34.329 35.6798 34.057 36.2238C33.785 36.6772 33.4223 37.0399 33.0596 37.4026C32.6969 37.6746 32.1529 37.8559 31.6995 38.0373C31.1555 38.1279 30.6114 38.2186 29.9767 38.2186H29.5233C29.2513 38.2186 28.9793 38.3093 28.7073 38.4906C28.5259 38.672 28.3446 38.944 28.2539 39.216V39.3974L27.7099 42.7523V42.843V42.9337C27.7099 42.9337 27.7099 42.9337 27.6192 42.9337H25.0803V42.843Z" fill="#263577"/>
<path d="M34.057 30.6929C34.057 30.7835 34.057 30.8742 33.9663 30.9649C33.2409 34.5918 30.8834 35.7706 27.8005 35.7706H26.259C25.8964 35.7706 25.5337 36.0426 25.5337 36.4053L24.7176 41.483L24.5363 42.9338C24.5363 43.2058 24.7176 43.3872 24.8989 43.3872H27.7098C28.0725 43.3872 28.3445 43.1152 28.3445 42.8431V42.6618L28.8886 39.3975V39.2162C28.9793 38.8535 29.2513 38.6722 29.5233 38.6722H29.9767C32.6969 38.6722 34.7824 37.5841 35.3264 34.4105C35.5984 33.0504 35.4171 31.9623 34.7824 31.2369C34.601 31.0556 34.329 30.8742 34.057 30.6929Z" fill="#2199D6"/>
<path d="M33.3311 30.4209C33.2405 30.4209 33.1498 30.3303 32.9684 30.3303C32.8778 30.3303 32.6964 30.2396 32.6057 30.2396C32.1524 30.1489 31.699 30.1489 31.2456 30.1489H27.0747C26.984 30.1489 26.8933 30.1489 26.8026 30.2396C26.6213 30.3303 26.4399 30.5116 26.4399 30.693L25.5332 36.3147V36.4961C25.6239 36.1334 25.8959 35.8614 26.2586 35.8614H27.8C30.8829 35.8614 33.2404 34.5919 33.9658 31.0557C33.9658 30.965 33.9658 30.8743 34.0565 30.7836C33.8752 30.693 33.6938 30.6023 33.5125 30.5116C33.4218 30.4209 33.3311 30.4209 33.3311 30.4209Z" fill="#252C5E"/>
<path d="M26.4404 30.6928C26.4404 30.5115 26.6218 30.3301 26.8031 30.2394C26.8938 30.2394 26.9845 30.1488 27.0751 30.1488H31.2461C31.6995 30.1488 32.2435 30.1488 32.6062 30.2394C32.6969 30.2394 32.8782 30.2394 32.9689 30.3301C33.0596 30.3301 33.1503 30.4208 33.3316 30.4208C33.4223 30.4208 33.4223 30.4208 33.5129 30.5115C33.6943 30.6021 33.8756 30.6928 34.057 30.7835C34.2383 29.4234 34.057 28.5166 33.3316 27.7006C32.5155 26.7938 31.0648 26.4312 29.2513 26.4312H23.9016C23.5389 26.4312 23.1762 26.7032 23.1762 27.0659L21 41.0296C21 41.3016 21.1813 41.5736 21.4534 41.5736H24.7176L25.5337 36.3146L26.4404 30.6928Z" fill="#263577"/>
</svg>
