<svg width="60" height="40" viewBox="0 0 60 40" fill="none" xmlns="http://www.w3.org/2000/svg">
<path d="M38.0945 5.21924H21.8575V34.3906H38.0945V5.21924Z" fill="#FF5A00"/>
<path d="M22.9384 19.8048C22.9384 13.8781 25.7246 8.61789 30 5.21917C26.8535 2.7452 22.8843 1.25 18.5548 1.25C8.29864 1.25 0 9.54864 0 19.8048C0 30.061 8.29864 38.3597 18.5548 38.3597C22.8843 38.3597 26.8535 36.8645 30 34.3905C25.7186 31.0398 22.9384 25.7316 22.9384 19.8048Z" fill="#EB001B"/>
<path d="M59.9999 19.8048C59.9999 30.061 51.7012 38.3597 41.445 38.3597C37.1156 38.3597 33.1464 36.8645 29.9999 34.3905C34.3293 30.9858 37.0615 25.7316 37.0615 19.8048C37.0615 13.8781 34.2753 8.61789 29.9999 5.21917C33.1404 2.7452 37.1096 1.25 41.439 1.25C51.7012 1.25 59.9999 9.60268 59.9999 19.8048Z" fill="#F79E1B"/>
</svg>
