<svg width="112" height="40" viewBox="0 0 112 40" fill="none" xmlns="http://www.w3.org/2000/svg">
<g clip-path="url(#clip0_1916_1598)">
<path d="M0 0H40.6372V40H0V0Z" fill="#010204"/>
<path d="M2.97345 2.96289H37.6637V37.037H2.97345V2.96289Z" fill="white"/>
<mask id="mask0_1916_1598" style="mask-type:luminance" maskUnits="userSpaceOnUse" x="6" y="4" width="29" height="26">
<path d="M6.4425 4.44434H34.1947V29.1357H6.4425V4.44434Z" fill="white"/>
</mask>
<g mask="url(#mask0_1916_1598)">
<path d="M17.8258 4.88225H20.7953V7.46447H17.8258V4.88176V4.88225ZM17.8258 8.75534H20.7953V16.6418H17.8258V8.75534ZM34.1947 10.0813H28.2909V12.3845H31.2956V12.8032C30.1999 14.7223 26.9826 14.862 25.9572 12.8032C25.3561 11.6516 25.2501 10.2561 25.8512 8.99978C26.7705 6.87139 30.1999 6.62694 31.2956 8.75534H34.1947C33.5584 5.022 28.892 4.11435 26.0276 5.23139C22.846 6.34744 21.6794 10.2561 22.846 13.1869C23.7301 15.4902 26.0633 16.8161 28.5382 16.781C31.2604 16.8156 34.0535 15.0714 34.1947 12.3845V10.0813ZM13.3706 8.75534C13.3359 7.5341 12.381 7.22003 12.381 7.22003C11.9216 7.08028 11.4265 7.08028 10.9671 7.2546C10.7636 7.3414 10.5824 7.47271 10.4368 7.63879C10.1187 7.95287 10.1187 8.54596 10.472 8.82497C10.637 8.98793 10.861 9.12768 11.1435 9.24373C11.4265 9.36028 11.7332 9.47633 12.0628 9.59287C12.5341 9.73262 13.0173 9.89509 13.5124 10.0818C14.0074 10.2442 14.4673 10.4536 14.8915 10.7094C15.2996 10.9728 15.6485 11.3175 15.9164 11.7218C16.4823 12.6289 16.412 14.1292 15.8103 15.0363C15.4808 15.5711 14.9857 15.9899 14.3256 16.2926C13.053 16.8857 10.861 16.9553 9.48234 16.3973C9.48234 16.3973 6.75965 15.6995 6.79533 12.3845H9.69445V12.6635C9.69445 14.3035 11.1435 14.4082 11.5677 14.4082C12.1099 14.4082 12.5341 14.3035 12.8409 14.0941C13.3359 13.7455 13.4063 12.9425 12.9821 12.5588C12.8171 12.3958 12.5817 12.2566 12.2749 12.14C11.9453 12.024 11.5796 11.8961 11.1792 11.7563C10.7016 11.6382 10.2296 11.4985 9.76482 11.3376C9.31731 11.1746 8.8926 10.9652 8.49218 10.7094C7.60807 10.1514 7.14868 9.34842 7.18386 8.23188C7.18386 7.48768 7.37218 6.85904 7.74981 6.34744C8.15023 5.83583 8.6805 5.44028 9.3406 5.16126C10.5429 4.67238 12.4518 4.63781 13.6893 5.1267C14.3018 5.33559 14.8093 5.66151 15.2097 6.10349C15.2097 6.10349 16.0933 6.87089 16.1642 8.75534H13.3706Z" fill="#020000"/>
<path d="M33.3879 19.1216H27.9728L31.4601 28.6416H33.3879V19.1216Z" fill="#FF0000"/>
<path d="M12.7204 25.5907L10.084 19.1216H7.24878V28.6416H9.63002V23.1897L11.756 28.6416H13.6838L15.8103 23.1897V28.6416H18.1916V19.1216H15.3569L12.7204 25.5907Z" fill="#020000"/>
<path fill-rule="evenodd" clip-rule="evenodd" d="M26.3572 19.1216L29.8723 28.6416H27.3776L26.6971 26.7487H22.1899L21.5377 28.6416H19.043L22.5581 19.1216H26.3572ZM25.9885 24.771L24.7128 21.1838H24.1742L22.8985 24.7715L25.9885 24.771Z" fill="#020000"/>
</g>
<path d="M9.91797 34.6874H9.41595L10.868 30.7467H11.3621L12.8141 34.6874H12.3126L11.1306 31.3704H11.0999L9.91797 34.6874ZM10.1033 33.1482H12.1272V33.5714H10.1033V33.1482ZM13.8404 34.6874L12.7596 30.7467H13.2458L14.0724 33.9566H14.111L14.953 30.7467H15.4932L16.3357 33.9566H16.3743L17.2005 30.7467H17.6871L16.6058 34.6874H16.1117L15.2385 31.5472H15.2077L14.335 34.6879H13.8409L13.8404 34.6874ZM18.1381 34.6874H17.6361L19.0881 30.7467H19.5822L21.0342 34.6874H20.5322L19.3508 31.3704H19.3195L18.1381 34.6874ZM18.3234 33.1482H20.3469V33.5714H18.3234V33.1482ZM21.6502 34.6874V30.7467H22.9868C23.2955 30.7467 23.5493 30.7995 23.7475 30.9047C23.9457 31.0084 24.0924 31.1516 24.1876 31.3339C24.2827 31.5161 24.3303 31.723 24.3303 31.9556C24.3303 32.1877 24.2827 32.3936 24.1876 32.5729C24.0924 32.7526 23.9462 32.8939 23.7495 32.9961C23.5522 33.0978 23.3005 33.1482 22.9942 33.1482H21.9129V32.7171H22.9789C23.19 32.7171 23.36 32.6864 23.4888 32.6247C23.6186 32.5635 23.7128 32.4766 23.7708 32.363C23.8298 32.2494 23.8595 32.1131 23.8595 31.9556C23.8595 31.7976 23.8298 31.6593 23.7703 31.5418C23.709 31.4218 23.6092 31.3256 23.4868 31.2687C23.3565 31.203 23.1845 31.1699 22.9714 31.1699H22.1289V34.6874H21.6502ZM23.5116 32.9176L24.4849 34.6874H23.9289L22.9709 32.9176H23.5116ZM26.3488 34.6874H25.1287V30.7467H26.4028C26.7864 30.7467 27.1149 30.8257 27.3875 30.9837C27.6606 31.1403 27.8697 31.3655 28.0154 31.6588C28.1606 31.9516 28.2334 32.3018 28.2334 32.7097C28.2334 33.12 28.1601 33.4736 28.0134 33.7699C27.8743 34.0567 27.6506 34.2943 27.3721 34.4509C27.0916 34.6089 26.7507 34.6874 26.3488 34.6874ZM25.6074 34.2642H26.318C26.6451 34.2642 26.9157 34.2015 27.1308 34.0756C27.3459 33.9501 27.5059 33.7709 27.6115 33.5388C27.7171 33.3067 27.7701 33.0301 27.7701 32.7092C27.7701 32.3916 27.718 32.1176 27.6135 31.8879C27.5175 31.6665 27.354 31.4808 27.1461 31.3571C26.939 31.2326 26.6808 31.1704 26.3721 31.1704H25.6074V34.2642ZM31.1995 31.7319C31.1905 31.6396 31.1604 31.5507 31.1114 31.4719C31.0624 31.3931 30.9959 31.3266 30.917 31.2776C30.7525 31.1704 30.5503 31.1166 30.3109 31.1166C30.136 31.1166 29.9828 31.1447 29.8515 31.201C29.731 31.2502 29.6258 31.3305 29.5467 31.4336C29.4748 31.5312 29.4368 31.6494 29.4382 31.7704C29.4382 31.8756 29.463 31.9664 29.5135 32.042C29.5651 32.1161 29.631 32.1783 29.7108 32.2287C29.79 32.2771 29.8743 32.3176 29.9615 32.3497C30.0492 32.3808 30.13 32.4055 30.2029 32.4247L30.6043 32.5324C30.7078 32.5595 30.8223 32.5966 30.9482 32.644C31.0756 32.6919 31.1975 32.7566 31.3134 32.8385C31.4304 32.919 31.5265 33.0232 31.6029 33.1501C31.6787 33.2771 31.7168 33.4331 31.7168 33.6178C31.7193 33.8225 31.6608 34.0234 31.5488 34.1951C31.4383 34.3669 31.2763 34.5032 31.0622 34.605C30.8501 34.7062 30.5914 34.7566 30.2881 34.7566C30.0046 34.7566 29.7593 34.7111 29.5522 34.6203C29.3586 34.539 29.1905 34.4073 29.0655 34.239C28.947 34.0723 28.8782 33.8756 28.8668 33.6716H29.3609C29.3738 33.8203 29.4243 33.9432 29.5115 34.041C29.6007 34.1373 29.7127 34.2089 29.8475 34.2563C29.9843 34.3027 30.131 34.3255 30.2881 34.3255C30.471 34.3255 30.635 34.2963 30.7802 34.2376C30.9259 34.1768 31.0409 34.0939 31.1261 33.9872C31.211 33.8798 31.2559 33.7465 31.2535 33.6099C31.2535 33.479 31.2168 33.3729 31.1435 33.2904C31.0628 33.2033 30.9638 33.135 30.8535 33.0904C30.7274 33.037 30.5977 32.9921 30.4655 32.9561L29.9789 32.8173C29.6701 32.7284 29.4253 32.6025 29.2454 32.438C29.065 32.2741 28.9748 32.0593 28.9748 31.7936C28.9748 31.5729 29.0348 31.3808 29.1547 31.2163C29.2756 31.0509 29.4377 30.9225 29.6409 30.8316C29.8455 30.7393 30.074 30.6934 30.3268 30.6934C30.5815 30.6934 30.808 30.7388 31.0062 30.8297C31.2044 30.9195 31.3615 31.0425 31.477 31.199C31.5944 31.3556 31.6564 31.5334 31.6628 31.7324L31.1995 31.7319Z" fill="#020001"/>
<path d="M48.606 14.3638V12.7381L51.7217 10.1692C51.9284 9.99837 52.1053 9.83837 52.252 9.68973C52.4016 9.53763 52.5161 9.38208 52.5949 9.22208C52.6762 9.06208 52.7173 8.88479 52.7173 8.68973C52.7173 8.47541 52.6707 8.29269 52.5786 8.14109C52.4902 7.99072 52.3599 7.86924 52.2034 7.79146C52.0315 7.70482 51.8409 7.66158 51.6484 7.66553C51.4392 7.66553 51.2544 7.70751 51.0938 7.79146C50.9362 7.87541 50.8138 7.99887 50.7266 8.16134C50.6399 8.3243 50.5963 8.52183 50.5963 8.75442H48.4425C48.4425 8.16924 48.5743 7.66553 48.8379 7.24282C49.1021 6.8201 49.4743 6.49467 49.956 6.26702C50.4372 6.03986 51.0011 5.92578 51.6484 5.92578C52.3174 5.92578 52.8967 6.03294 53.3863 6.24677C53.8784 6.45813 54.2576 6.7564 54.5242 7.14109C54.7933 7.52628 54.9281 7.97714 54.9281 8.49418C54.9262 8.82284 54.8581 9.14778 54.7279 9.44973C54.595 9.7643 54.3557 10.1124 54.0103 10.4942C53.6649 10.8764 53.1742 11.3317 52.5379 11.8601L51.7544 12.5105V12.5589H55.0178V14.3638H48.606ZM59.6697 14.5915C58.911 14.5885 58.2559 14.4137 57.7038 14.067C57.1517 13.7203 56.726 13.2201 56.4272 12.5673C56.1279 11.9139 55.9797 11.1312 55.9822 10.2181C55.9851 9.30208 56.1348 8.5243 56.4312 7.88479C56.73 7.24529 57.1542 6.75887 57.7038 6.42553C58.2559 6.0922 58.911 5.92578 59.6697 5.92578C60.4285 5.92578 61.0836 6.09368 61.6357 6.42949C62.1878 6.76282 62.6135 7.24924 62.9123 7.88874C63.2116 8.52825 63.3598 9.30455 63.3568 10.2181C63.3568 11.1366 63.2077 11.9223 62.9083 12.5752C62.609 13.2285 62.1838 13.7283 61.6317 14.0754C61.0821 14.4191 60.4285 14.5915 59.6697 14.5915ZM59.6697 12.7544C60.0612 12.7544 60.3819 12.551 60.6321 12.1445C60.8854 11.7352 61.0103 11.0927 61.0078 10.2181C61.0078 9.64627 60.9503 9.17862 60.8363 8.81566C60.7218 8.45269 60.5643 8.18405 60.363 8.01072C60.1735 7.839 59.9259 7.74469 59.6697 7.74652C59.2782 7.74652 58.9586 7.94405 58.7113 8.3401C58.4635 8.73566 58.3371 9.36183 58.3317 10.2181C58.3292 10.8008 58.3847 11.2799 58.4992 11.6566C58.6132 12.0305 58.7708 12.307 58.972 12.4863C59.1761 12.6645 59.4086 12.7544 59.6697 12.7544ZM64.4218 14.3638V12.7381L67.538 10.1692C67.7446 9.99837 67.9211 9.83837 68.0683 9.68973C68.2179 9.53763 68.3319 9.38208 68.4107 9.22208C68.4936 9.05692 68.5356 8.87438 68.5331 8.68973C68.5331 8.47541 68.487 8.29269 68.3943 8.14109C68.3061 7.99062 68.1758 7.86909 68.0192 7.79146C67.8475 7.70488 67.657 7.66164 67.4646 7.66553C67.255 7.66553 67.0702 7.70751 66.9096 7.79146C66.7525 7.87483 66.6246 8.00383 66.5429 8.16134C66.4557 8.3243 66.412 8.52183 66.412 8.75442H64.2583C64.2583 8.16924 64.3901 7.66553 64.6542 7.24282C64.9179 6.8201 65.2906 6.49467 65.7718 6.26702C66.253 6.03986 66.8174 5.92578 67.4646 5.92578C68.1332 5.92578 68.7125 6.03294 69.2021 6.24677C69.6942 6.45813 70.0738 6.7564 70.34 7.14109C70.6091 7.52628 70.7439 7.97714 70.7439 8.49418C70.7439 8.81418 70.6775 9.13269 70.5441 9.44973C70.4108 9.7643 70.1715 10.1124 69.8261 10.4942C69.4806 10.8764 68.99 11.3317 68.3537 11.8601L67.5707 12.5105V12.5589H70.8336V14.3638H64.4218ZM71.5863 13.0631V11.307L74.9473 6.03986H76.5461V8.3806H75.6327L73.8214 11.2423V11.307H78.7816V13.0631H71.5863ZM75.6486 14.3638V12.5268L75.6976 11.7623V6.03986H77.8187V14.3638H75.6486ZM82.0048 14.3638V6.03936H85.627C86.2633 6.03936 86.7975 6.12479 87.2297 6.29566C87.6648 6.46652 87.9924 6.70751 88.2129 7.01911C88.4359 7.33072 88.5474 7.69813 88.5474 8.12035C88.5474 8.42652 88.4795 8.70603 88.3432 8.95788C88.2099 9.20973 88.0226 9.42109 87.7803 9.59195C87.5247 9.76565 87.2358 9.88469 86.9318 9.94158V10.0231C87.2757 10.0323 87.612 10.1257 87.9111 10.2952C88.2019 10.4579 88.4441 10.6948 88.6128 10.9816C88.7868 11.272 88.8735 11.6137 88.8735 12.0063C88.8735 12.4616 88.7541 12.8665 88.5147 13.2216C88.2783 13.5766 87.9408 13.8557 87.5032 14.0586C87.0651 14.2621 86.5433 14.3638 85.9367 14.3638H82.0048ZM84.2726 12.5589H85.3331C85.7137 12.5589 85.9992 12.4887 86.19 12.3475C86.3803 12.2043 86.4754 11.9929 86.4754 11.7134C86.4754 11.5184 86.4303 11.3529 86.3406 11.2176C86.2467 11.0788 86.113 10.9713 85.957 10.909C85.794 10.8384 85.5967 10.8033 85.3658 10.8033H84.2726V12.5589ZM84.2726 9.40479H85.2028C85.401 9.40479 85.5764 9.37368 85.7286 9.31146C85.8812 9.24924 85.9992 9.15986 86.0839 9.04331C86.1706 8.9243 86.2142 8.77911 86.2142 8.60874C86.2142 8.35097 86.1216 8.15442 85.9367 8.01911C85.7519 7.88084 85.5179 7.81171 85.2355 7.81171H84.2726V9.40479ZM89.6773 14.3638V6.03936H95.6976V7.8606H91.9451V9.29121H95.3878V11.112H91.9451V12.5431H95.6812V14.3638H89.6773ZM101.325 8.64084C101.304 8.36973 101.202 8.15837 101.02 8.00677C100.84 7.85516 100.567 7.77961 100.2 7.77961C99.966 7.77961 99.7742 7.80776 99.6245 7.86455C99.4778 7.91887 99.3688 7.99294 99.2984 8.08825C99.2279 8.1821 99.1893 8.29596 99.1884 8.41319C99.1829 8.51344 99.2003 8.6043 99.2414 8.68578C99.2845 8.7643 99.3529 8.8359 99.4451 8.90109C99.5378 8.96331 99.6557 9.0201 99.7999 9.07195C99.9441 9.12331 100.116 9.16924 100.314 9.21023L100.999 9.3564C101.462 9.45368 101.857 9.58257 102.186 9.74257C102.515 9.90208 102.784 10.0907 102.994 10.3075C103.203 10.5213 103.357 10.7623 103.455 11.031C103.558 11.3122 103.61 11.6092 103.61 11.9085C103.607 12.4562 103.47 12.9194 103.198 13.2986C102.926 13.6784 102.537 13.9668 102.031 14.1643C101.528 14.3623 100.923 14.4611 100.216 14.4611C99.4902 14.4611 98.8564 14.3544 98.3152 14.1401C97.777 13.9263 97.3582 13.5969 97.0589 13.1524C96.7626 12.7055 96.6129 12.1337 96.6104 11.4374H98.7642C98.7776 11.6922 98.8415 11.906 98.9555 12.0794C99.0699 12.2527 99.2305 12.3841 99.4372 12.4739C99.6463 12.5628 99.8951 12.6078 100.184 12.6078C100.425 12.6078 100.628 12.5781 100.791 12.5189C100.954 12.4586 101.078 12.3762 101.162 12.2705C101.247 12.1648 101.29 12.0443 101.293 11.909C101.292 11.7864 101.247 11.6682 101.166 11.5757C101.087 11.4779 100.957 11.3915 100.775 11.3154C100.593 11.2364 100.347 11.1638 100.037 11.0957L99.2042 10.9169C98.4649 10.7574 97.8816 10.4902 97.4549 10.1164C97.0307 9.73961 96.8195 9.22603 96.8225 8.57566C96.8195 8.04726 96.9613 7.58553 97.2467 7.18998C97.5347 6.79146 97.9331 6.48134 98.4416 6.25911C98.953 6.03689 99.5388 5.92578 100.2 5.92578C100.874 5.92578 101.458 6.03837 101.95 6.26307C102.442 6.48825 102.821 6.80529 103.088 7.21418C103.357 7.6206 103.493 8.09615 103.495 8.64134H101.325V8.64084ZM104.244 7.8606V6.03936H111.504V7.8606H108.992V14.3638H106.757V7.8601H104.244V7.8606ZM52.196 19.1327C52.1771 18.8991 52.0889 18.7164 51.9318 18.5855C51.7772 18.4547 51.5413 18.3895 51.2246 18.3895C51.0224 18.3895 50.8574 18.4142 50.7281 18.4631C50.6017 18.51 50.5075 18.5742 50.4466 18.6557C50.3858 18.7369 50.3525 18.8353 50.3514 18.9366C50.3459 19.0175 50.3618 19.0984 50.3975 19.1712C50.4347 19.2394 50.4937 19.3011 50.5735 19.3574C50.6532 19.4112 50.7553 19.4601 50.8797 19.5045C51.0041 19.549 51.1518 19.5885 51.3228 19.6241L51.9145 19.75C52.3134 19.8339 52.6549 19.9455 52.9383 20.0833C53.2223 20.2216 53.4547 20.3841 53.6356 20.5707C53.816 20.7554 53.9488 20.9638 54.0331 21.1949C54.1198 21.427 54.1644 21.6789 54.1669 21.9529C54.1644 22.425 54.046 22.825 53.8115 23.152C53.5766 23.4794 53.2411 23.7287 52.805 23.8991C52.3709 24.07 51.8486 24.1554 51.2385 24.1554C50.6121 24.1554 50.0655 24.0631 49.5982 23.8784C49.1338 23.6937 48.7725 23.4092 48.5143 23.026C48.2586 22.6403 48.1293 22.147 48.1273 21.546H49.9857C49.9971 21.7658 50.0526 21.9505 50.1507 22.1001C50.2493 22.2497 50.3881 22.3628 50.5665 22.4403C50.7469 22.5174 50.9615 22.5559 51.2103 22.5559C51.4194 22.5559 51.5938 22.5302 51.7346 22.4789C51.8758 22.4275 51.9824 22.3559 52.0552 22.265C52.1281 22.1737 52.1652 22.0695 52.1677 21.9524C52.1668 21.8468 52.1282 21.7449 52.0587 21.665C51.9908 21.5811 51.8778 21.506 51.7207 21.4408C51.5636 21.3727 51.351 21.31 51.0839 21.2512L50.3658 21.0971C49.7275 20.9589 49.224 20.7287 48.8558 20.4058C48.4896 20.0808 48.3077 19.6379 48.3102 19.0769C48.3077 18.6206 48.4296 18.2226 48.6764 17.8808C48.9252 17.5371 49.2686 17.2695 49.7077 17.0774C50.1487 16.8858 50.6542 16.79 51.2246 16.79C51.8064 16.79 52.31 16.8873 52.7347 17.0813C53.1594 17.2749 53.4864 17.5485 53.7164 17.9016C53.9488 18.2522 54.0663 18.6631 54.0683 19.1327H52.196ZM54.9112 24.071V16.8887H58.0229C58.5577 16.8887 59.026 16.9939 59.4269 17.2048C59.8178 17.4052 60.1428 17.7129 60.3635 18.0917C60.5861 18.4729 60.6976 18.9184 60.6976 19.428C60.6976 19.9426 60.5826 20.388 60.3526 20.7643C60.1244 21.1415 59.7904 21.4438 59.3917 21.6339C58.9814 21.8374 58.5017 21.9391 57.9526 21.9391H56.0942V20.4241H57.5581C57.788 20.4241 57.9843 20.3845 58.1458 20.305C58.3104 20.2231 58.4358 20.1075 58.5225 19.9574C58.6117 19.8078 58.6563 19.6315 58.6563 19.428C58.6563 19.2221 58.6117 19.0468 58.5225 18.9021C58.4348 18.7538 58.3033 18.6361 58.1458 18.5653C57.9843 18.4858 57.788 18.4458 57.5581 18.4458H56.8683V24.0715L54.9112 24.071ZM68.3988 20.4799C68.3988 21.2794 68.2427 21.9539 67.931 22.5036C67.6188 23.0507 67.1975 23.4655 66.6673 23.748C66.137 24.0295 65.5458 24.1692 64.8931 24.1692C64.2365 24.1692 63.6428 24.028 63.1125 23.7445C62.5842 23.4596 62.1645 23.0433 61.8523 22.4962C61.5425 21.947 61.3874 21.2744 61.3874 20.4799C61.3874 19.6799 61.5425 19.0068 61.8523 18.4596C62.1645 17.91 62.5842 17.4952 63.1125 17.2142C63.6428 16.9312 64.2365 16.79 64.8931 16.79C65.5458 16.79 66.137 16.9312 66.6673 17.2147C67.1975 17.4952 67.6188 17.91 67.931 18.4591C68.2427 19.0068 68.3988 19.6799 68.3988 20.4799ZM66.3858 20.4799C66.3858 20.0492 66.3283 19.6873 66.2133 19.3924C66.1003 19.0957 65.9328 18.871 65.7098 18.7189C65.4893 18.5648 65.2172 18.4878 64.8931 18.4878C64.5695 18.4878 64.2959 18.5648 64.0729 18.7189C63.8524 18.871 63.6849 19.0957 63.5699 19.3924C63.4574 19.6868 63.4009 20.0492 63.4009 20.4799C63.4009 20.9095 63.4574 21.2734 63.5699 21.5702C63.6849 21.865 63.8524 22.0892 64.0729 22.2438C64.2959 22.3959 64.5695 22.472 64.8931 22.472C65.2172 22.472 65.4893 22.3959 65.7098 22.2438C65.9328 22.0892 66.1003 21.865 66.2133 21.5702C66.3283 21.2739 66.3858 20.91 66.3858 20.4799ZM69.3042 24.071V16.8887H72.4159C72.9507 16.8887 73.419 16.9855 73.8199 17.1801C74.2213 17.3737 74.5335 17.6532 74.7565 18.0181C74.9791 18.3826 75.0906 18.8201 75.0906 19.3297C75.0906 19.8443 74.9756 20.2779 74.7456 20.631C74.5182 20.9841 74.198 21.2507 73.7847 21.431C73.3744 21.6107 72.8947 21.7006 72.3456 21.7006H70.4872V20.1855H71.9511C72.181 20.1855 72.3773 20.1574 72.5388 20.1016C72.7034 20.0428 72.8287 19.9505 72.9155 19.8245C73.0047 19.6981 73.0493 19.5332 73.0493 19.3297C73.0493 19.1238 73.0047 18.9569 72.9155 18.828C72.8246 18.6939 72.6924 18.593 72.5388 18.5406C72.3773 18.4774 72.181 18.4458 71.9511 18.4458H71.2612V24.0715L69.3042 24.071ZM73.528 20.7742L75.3299 24.071H73.2044L71.4441 20.7742H73.528ZM75.7279 18.4591V16.8887H81.9929V18.4601H79.8248V24.0715H77.896V18.4596L75.7279 18.4591ZM82.7294 24.071V16.8887H85.8549C86.404 16.8887 86.8649 16.9623 87.2381 17.1095C87.6137 17.2571 87.8962 17.465 88.0865 17.7337C88.2788 18.0028 88.3749 18.3199 88.3749 18.6843C88.3749 18.9485 88.3165 19.1895 88.199 19.4068C88.084 19.6241 87.922 19.8068 87.7133 19.9539C87.4928 20.1037 87.2436 20.2064 86.9814 20.2557V20.3258C87.278 20.3338 87.568 20.4146 87.8258 20.5608C88.0796 20.7036 88.2813 20.9011 88.4314 21.1534C88.5816 21.4038 88.6564 21.6981 88.6564 22.0374C88.6564 22.43 88.5533 22.7796 88.3467 23.0863C88.1425 23.3924 87.8516 23.6329 87.474 23.8087C87.0964 23.9841 86.6459 24.0715 86.1226 24.0715L82.7294 24.071ZM84.6864 22.5139H85.6017C85.9298 22.5139 86.1766 22.4532 86.3406 22.3312C86.5046 22.2078 86.5869 22.025 86.5869 21.7845C86.5869 21.6162 86.5482 21.4734 86.4709 21.3564C86.3899 21.2364 86.2746 21.1435 86.1399 21.0897C85.9992 21.029 85.8292 20.9989 85.6295 20.9989H84.6864V22.5139ZM84.6864 19.7924H85.4887C85.6602 19.7924 85.8113 19.7653 85.9427 19.7115C86.0745 19.6576 86.1766 19.5806 86.2489 19.4799C86.3242 19.3771 86.3619 19.2522 86.3619 19.1045C86.3619 18.8823 86.2821 18.7129 86.1226 18.5959C85.963 18.4774 85.7613 18.4176 85.517 18.4176H84.6864V19.7924ZM96.3329 20.4799C96.3329 21.2794 96.1768 21.9539 95.8651 22.5036C95.5529 23.0507 95.1316 23.4655 94.6013 23.748C94.0711 24.0295 93.4799 24.1692 92.8272 24.1692C92.1706 24.1692 91.5769 24.028 91.0466 23.7445C90.5183 23.4596 90.0985 23.0433 89.7863 22.4962C89.4766 21.947 89.322 21.2744 89.322 20.4799C89.322 19.6799 89.4766 19.0068 89.7863 18.4596C90.0985 17.91 90.5183 17.4952 91.0466 17.2142C91.5769 16.9312 92.1706 16.79 92.8272 16.79C93.4799 16.79 94.0711 16.9312 94.6013 17.2147C95.1316 17.4952 95.5529 17.91 95.8651 18.4591C96.1768 19.0068 96.3329 19.6799 96.3329 20.4799ZM94.3199 20.4799C94.3199 20.0492 94.2624 19.6873 94.1474 19.3924C94.0349 19.0957 93.8669 18.871 93.6439 18.7189C93.4234 18.5648 93.1513 18.4878 92.8272 18.4878C92.5036 18.4878 92.23 18.5648 92.0075 18.7189C91.787 18.871 91.619 19.0957 91.504 19.3924C91.3915 19.6868 91.335 20.0492 91.335 20.4799C91.335 20.9095 91.3915 21.2734 91.504 21.5702C91.619 21.865 91.787 22.0892 92.0075 22.2438C92.23 22.3959 92.5036 22.472 92.8272 22.472C93.1513 22.472 93.4234 22.3959 93.6439 22.2438C93.8669 22.0892 94.0349 21.865 94.1474 21.5702C94.2624 21.2739 94.3199 20.91 94.3199 20.4799ZM104.221 20.4799C104.221 21.2794 104.065 21.9539 103.754 22.5036C103.441 23.0507 103.02 23.4655 102.49 23.748C101.96 24.0295 101.368 24.1692 100.716 24.1692C100.059 24.1692 99.4654 24.028 98.9352 23.7445C98.4069 23.4596 97.9871 23.0433 97.6749 22.4962C97.3652 21.947 97.2106 21.2744 97.2106 20.4799C97.2106 19.6799 97.3652 19.0068 97.6749 18.4596C97.9871 17.91 98.4069 17.4952 98.9352 17.2142C99.4654 16.9312 100.059 16.79 100.716 16.79C101.368 16.79 101.96 16.9312 102.49 17.2147C103.02 17.4952 103.441 17.91 103.754 18.4591C104.065 19.0068 104.221 19.6799 104.221 20.4799ZM102.208 20.4799C102.208 20.0492 102.151 19.6873 102.036 19.3924C101.923 19.0957 101.755 18.871 101.532 18.7189C101.312 18.5648 101.04 18.4878 100.716 18.4878C100.392 18.4878 100.119 18.5648 99.8961 18.7189C99.6755 18.871 99.5075 19.0957 99.3926 19.3924C99.2801 19.6868 99.2236 20.0492 99.2236 20.4799C99.2236 20.9095 99.2801 21.2734 99.3926 21.5702C99.5075 21.865 99.6755 22.0892 99.8961 22.2438C100.119 22.3959 100.392 22.472 100.716 22.472C101.04 22.472 101.312 22.3959 101.532 22.2438C101.755 22.0892 101.923 21.865 102.036 21.5702C102.151 21.2739 102.208 20.91 102.208 20.4799ZM105.127 24.071V16.8887H107.084V19.7924H107.183L109.351 16.8887H111.631L109.196 20.0873L111.688 24.0715H109.351L107.732 21.3781L107.084 22.2196V24.0715L105.127 24.071ZM50.1824 33.9475H48.0708L50.4501 26.7648H53.1252L55.5044 33.9475H53.3928L51.8159 28.7426H51.7594L50.1824 33.9475ZM49.7885 31.1139H53.7585V32.5727H49.7885V31.1139ZM62.4355 26.7648V33.9475H60.8026L58.1979 30.1737H58.1558V33.9475H56.1987V26.7653H57.8599L60.4225 30.5253H60.4785V26.7653L62.4355 26.7648ZM66.135 33.9475H63.3613V26.7653H66.1068C66.8481 26.7653 67.4889 26.909 68.0286 27.1964C68.5614 27.4729 68.9981 27.9031 69.2814 28.431C69.5773 28.9668 69.725 29.6082 69.725 30.3569C69.725 31.105 69.5783 31.748 69.2849 32.2858C69.0016 32.8113 68.5679 33.241 68.039 33.5203C67.5018 33.8058 66.867 33.9475 66.135 33.9475ZM65.3183 32.2922H66.0646C66.421 32.2922 66.7247 32.2349 66.976 32.1203C67.2292 32.0058 67.422 31.8083 67.5534 31.5278C67.6872 31.2473 67.7541 30.8562 67.7541 30.3564C67.7541 29.8557 67.6857 29.4655 67.5499 29.1845C67.4161 28.9041 67.2188 28.7065 66.9587 28.592C66.7005 28.4774 66.3838 28.4201 66.0082 28.4201H65.3183V32.2922ZM79.3347 29.4581H77.3494C77.3379 29.3043 77.2999 29.1536 77.2369 29.0127C77.1802 28.882 77.0962 28.7649 76.9906 28.669C76.8826 28.5682 76.7542 28.4917 76.6139 28.4448C76.4521 28.3888 76.2817 28.3615 76.1104 28.3643C75.7819 28.3643 75.5039 28.4433 75.2764 28.6023C75.0509 28.7613 74.8799 28.9895 74.7625 29.2863C74.6475 29.5836 74.59 29.9401 74.59 30.3564C74.59 30.7959 74.6485 31.1643 74.766 31.4611C74.8859 31.7554 75.0583 31.9776 75.2833 32.1278C75.5088 32.2744 75.7799 32.3485 76.0966 32.3485C76.277 32.3485 76.439 32.3263 76.5822 32.2818C76.7255 32.2349 76.8498 32.1683 76.9554 32.0818C77.061 31.9954 77.1467 31.8912 77.2121 31.7697C77.2805 31.6458 77.3261 31.5065 77.3494 31.3524L79.3347 31.3663C79.3062 31.6891 79.2191 32.004 79.0775 32.2957C78.9212 32.6206 78.7079 32.9152 78.4476 33.1653C78.178 33.4295 77.8435 33.6423 77.4445 33.8038C77.0456 33.9653 76.5822 34.0458 76.0544 34.0458C75.3924 34.0458 74.7987 33.9045 74.2733 33.6211C73.75 33.3386 73.3357 32.9223 73.0309 32.3727C72.7281 31.8236 72.577 31.151 72.577 30.3564C72.577 29.5564 72.7316 28.8833 73.0413 28.3362C73.3511 27.7865 73.7689 27.3717 74.2942 27.0907C74.82 26.8078 75.4067 26.6665 76.0544 26.6665C76.5094 26.6665 76.9281 26.7287 77.3107 26.8522C77.678 26.9678 78.0196 27.1524 78.3172 27.3959C78.6086 27.6351 78.8462 27.9328 79.0145 28.2695C79.1904 28.6152 79.297 29.0117 79.3347 29.4581ZM81.8725 33.9475H79.7604L82.1396 26.7648H84.8147L87.194 33.9475H85.0823L83.5054 28.7426H83.4489L81.8725 33.9475ZM81.478 31.1139H85.4486V32.5727H81.478V31.1139ZM91.4936 29.0092C91.4748 28.7757 91.3866 28.5929 91.2295 28.4621C91.0748 28.3312 90.8389 28.266 90.5223 28.266C90.3201 28.266 90.155 28.2907 90.0257 28.3396C89.8988 28.3865 89.8052 28.4507 89.7442 28.5322C89.6834 28.6134 89.6501 28.7118 89.6491 28.8132C89.6434 28.894 89.6591 28.9749 89.6947 29.0478C89.7323 29.1159 89.7913 29.1776 89.8711 29.2339C89.9509 29.2878 90.053 29.3366 90.1769 29.3811C90.3012 29.4255 90.4494 29.465 90.6204 29.5006L91.2121 29.6265C91.6105 29.7105 91.952 29.8221 92.236 29.9599C92.5199 30.0981 92.7524 30.2606 92.9332 30.4473C93.1136 30.632 93.2464 30.8403 93.3307 31.0715C93.4174 31.3036 93.462 31.5554 93.4645 31.829C93.462 32.3016 93.3436 32.7016 93.1092 33.029C92.8743 33.3559 92.5388 33.6053 92.1022 33.7757C91.668 33.9465 91.1462 34.032 90.5361 34.032C89.9097 34.032 89.3626 33.9396 88.8958 33.7549C88.4314 33.5702 88.0702 33.2858 87.812 32.9026C87.5563 32.5169 87.4269 32.0236 87.4249 31.4226H89.2833C89.2947 31.6423 89.3497 31.827 89.4484 31.9766C89.547 32.1263 89.6857 32.2394 89.8637 32.3169C90.0445 32.3939 90.2591 32.4324 90.5079 32.4324C90.717 32.4324 90.8915 32.4068 91.0322 32.3554C91.173 32.3041 91.28 32.2324 91.3529 32.1416C91.4252 32.0502 91.4629 31.946 91.4653 31.829C91.4645 31.7233 91.4258 31.6214 91.3563 31.5416C91.2879 31.4576 91.1754 31.3826 91.0183 31.3174C90.8612 31.2492 90.6486 31.1865 90.381 31.1278L89.6634 30.9737C89.0251 30.8354 88.5216 30.6053 88.1534 30.2823C87.7872 29.9574 87.6053 29.5144 87.6078 28.9534C87.6053 28.4971 87.7272 28.0991 87.9735 27.7574C88.2223 27.4137 88.5662 27.146 89.0048 26.9539C89.4464 26.7623 89.9519 26.6665 90.5223 26.6665C91.1041 26.6665 91.6071 26.7638 92.0318 26.9579C92.4565 27.1515 92.7841 27.425 93.014 27.7781C93.2464 28.1287 93.3634 28.5396 93.3659 29.0092H91.4936ZM96.1659 26.7648V33.9475H94.2089V26.7653L96.1659 26.7648ZM103.33 26.7648V33.9475H101.697L99.0927 30.1737H99.0501V33.9475H97.0931V26.7653H98.7548L101.317 30.5253H101.373V26.7653L103.33 26.7648ZM111.239 30.3564C111.239 31.1559 111.083 31.8305 110.771 32.3801C110.459 32.9273 110.038 33.3421 109.507 33.6245C108.977 33.906 108.386 34.0458 107.734 34.0458C107.076 34.0458 106.483 33.9045 105.952 33.6211C105.425 33.3362 105.004 32.9199 104.692 32.3727C104.383 31.8236 104.228 31.151 104.228 30.3564C104.228 29.5564 104.383 28.8833 104.692 28.3362C105.004 27.7865 105.425 27.3717 105.952 27.0907C106.483 26.8078 107.076 26.6665 107.734 26.6665C108.386 26.6665 108.977 26.8078 109.507 27.0912C110.038 27.3717 110.459 27.7865 110.771 28.3357C111.083 28.8833 111.239 29.5564 111.239 30.3564ZM109.226 30.3564C109.226 29.9258 109.168 29.5638 109.053 29.269C108.941 28.9722 108.773 28.7475 108.55 28.5954C108.329 28.4413 108.057 28.3643 107.734 28.3643C107.409 28.3643 107.136 28.4413 106.913 28.5954C106.693 28.7475 106.525 28.9722 106.41 29.269C106.297 29.5633 106.241 29.9258 106.241 30.3564C106.241 30.786 106.297 31.15 106.41 31.4468C106.525 31.7416 106.693 31.9658 106.913 32.1203C107.136 32.2724 107.409 32.3485 107.734 32.3485C108.057 32.3485 108.329 32.2724 108.55 32.1203C108.773 31.9658 108.941 31.7416 109.053 31.4468C109.168 31.1505 109.226 30.7865 109.226 30.3564Z" fill="#020000"/>
</g>
<defs>
<clipPath id="clip0_1916_1598">
<rect width="112" height="40" fill="white"/>
</clipPath>
</defs>
</svg>
