<svg width="64" height="40" viewBox="0 0 64 40" fill="none" xmlns="http://www.w3.org/2000/svg">
<g clip-path="url(#clip0_1916_1586)">
<path d="M64 37.6419C64 38.2673 63.7492 38.8671 63.3029 39.3093C62.8565 39.7516 62.2511 40 61.6198 40H2.38017C1.74891 40 1.1435 39.7516 0.697134 39.3093C0.250767 38.8671 0 38.2673 0 37.6419L0 2.35808C0 1.73268 0.250767 1.13289 0.697134 0.690665C1.1435 0.24844 1.74891 0 2.38017 0L61.6198 0C62.2511 0 62.8565 0.24844 63.3029 0.690665C63.7492 1.13289 64 1.73268 64 2.35808V37.6419Z" fill="#1A1F71"/>
<path d="M25.3926 12.262L18.3636 29.1179H13.7645L10.2934 15.6681C10.255 15.3534 10.1399 15.0531 9.95817 14.794C9.77647 14.535 9.53389 14.3252 9.25207 14.1834C7.90017 13.5359 6.47107 13.0662 5 12.786L5.08678 12.262H12.4628C12.95 12.2578 13.4219 12.4331 13.7895 12.7549C14.1571 13.0766 14.3951 13.5226 14.4587 14.0087L16.281 23.7904L20.7934 12.3493H25.3926V12.262ZM43.3554 23.6157C43.3554 19.1616 37.281 18.8996 37.281 16.9782C37.281 16.3668 37.8884 15.7555 39.1033 15.5808C40.5665 15.42 42.0445 15.6932 43.3554 16.3668L44.1364 12.786C42.8318 12.2904 41.4521 12.0245 40.0579 12C35.8058 12 32.7686 14.2707 32.7686 17.5895C32.7686 20.0349 34.938 21.345 36.5868 22.131C38.2355 22.917 38.843 23.441 38.843 24.2271C38.843 25.3624 37.5413 25.8865 36.2397 25.8865C34.7025 25.8975 33.185 25.5382 31.814 24.8384L31.0331 28.5065C32.5577 29.0883 34.1753 29.3843 35.8058 29.3799C40.3182 29.3799 43.2686 27.1092 43.3554 23.6157ZM54.6364 29.1179H58.6281L55.157 12.262H51.4256C51.0339 12.253 50.6489 12.3655 50.3229 12.5842C49.9969 12.8029 49.7457 13.1173 49.6033 13.4847L43.095 29.1179H47.6074L48.4752 26.5852H54.0289L54.6364 29.1179ZM49.7769 23.179L52.0331 16.8908L53.3347 23.179H49.7769ZM31.5537 12.262L27.9959 29.1179H23.657L27.2149 12.262H31.5537Z" fill="white"/>
</g>
<defs>
<clipPath id="clip0_1916_1586">
<rect width="64" height="40" fill="white"/>
</clipPath>
</defs>
</svg>
